<?xml version="1.0" encoding="UTF-8"?>
<svg width="1538px" height="908px" viewBox="0 0 1538 908" version="1.1" xmlns="http://www.w3.org/2000/svg" xmlns:xlink="http://www.w3.org/1999/xlink">
    <!-- Generator: Sketch 59.1 (86144) - https://sketch.com -->
    <title>portfolioMonitoringUserflow</title>
    <desc>Created with Sketch.</desc>
    <defs>
        <rect id="path-1" x="0" y="0" width="337" height="142"></rect>
        <filter x="-2.5%" y="-3.2%" width="105.0%" height="112.0%" filterUnits="objectBoundingBox" id="filter-2">
            <feMorphology radius="0.5" operator="dilate" in="SourceAlpha" result="shadowSpreadOuter1"></feMorphology>
            <feOffset dx="0" dy="4" in="shadowSpreadOuter1" result="shadowOffsetOuter1"></feOffset>
            <feGaussianBlur stdDeviation="2" in="shadowOffsetOuter1" result="shadowBlurOuter1"></feGaussianBlur>
            <feComposite in="shadowBlurOuter1" in2="SourceAlpha" operator="out" result="shadowBlurOuter1"></feComposite>
            <feColorMatrix values="0 0 0 0 0   0 0 0 0 0   0 0 0 0 0  0 0 0 0.1 0" type="matrix" in="shadowBlurOuter1"></feColorMatrix>
        </filter>
    </defs>
    <g id="portfolioMonitoringUserflow" stroke="none" stroke-width="1" fill="none" fill-rule="evenodd">
        <rect fill="#FFFFFF" x="0" y="0" width="1538" height="908"></rect>
        <g id="Group-13" transform="translate(60.000000, 706.000000)">
            <g id="Rectangle">
                <use fill="black" fill-opacity="1" filter="url(#filter-2)" xlink:href="#path-1"></use>
                <use stroke="#AFAFAF" stroke-width="1" fill="#FFFFFF" fill-rule="evenodd" xlink:href="#path-1"></use>
            </g>
            <rect id="Rectangle" fill="#E2E2E2" x="1" y="1" width="335" height="32"></rect>
            <text id="LEGEND" font-family="Lato-Bold, Lato" font-size="12" font-weight="bold" fill="#333333">
                <tspan x="145.169" y="22">LEGEND</tspan>
            </text>
            <g id="Group-12" transform="translate(16.000000, 48.000000)">
                <g id="Group-3" transform="translate(0.000000, 11.000000)">
                    <path d="M86.3039232,28.7679744 C86.3039232,32.5828164 85.2089709,36.2524951 83.0191312,39.7769604 C80.8292914,43.3014256 77.7112385,46.4124375 73.6649726,49.1099817 C69.618685,51.8074827 64.9521888,53.8861775 59.6654765,55.3460659 C54.3787427,56.8059543 48.8742353,57.5359488 43.1519616,57.5359488 C37.4296447,57.5359488 31.9251158,56.8059543 26.6384035,55.3460659 C21.3516841,53.8861775 16.6851806,51.8074827 12.6389075,49.1099817 C8.59260559,46.4124375 5.47455272,43.3014256 3.28472732,39.7769604 C1.09489472,36.2524951 0,32.5828164 0,28.7679744 C0,24.9530893 1.09490911,21.2833889 3.28473451,17.7589237 C5.47455272,14.2344297 8.59260559,11.123425 12.6389075,8.42592394 C16.6851806,5.72840133 21.3516841,3.64968503 26.6384035,2.18979664 C31.9251158,0.729929814 37.4296447,0 43.1519616,0 C48.8742353,0 54.3787427,0.729929814 59.6654765,2.18979664 C64.9521888,3.64968503 69.618685,5.72840133 73.6649726,8.42592394 C77.7112385,11.123425 80.8292914,14.2344297 83.0191312,17.7589237 C85.2089709,21.2833889 86.3039232,24.9530893 86.3039232,28.7679744 Z" id="Fill-99" fill="#FFFFFF"></path>
                    <path d="M86.6953885,28.7679744 C86.6953885,32.5828164 85.6004362,36.2524951 83.4105964,39.7769604 C81.2207566,43.3014256 78.1027038,46.4124375 74.0564378,49.1099817 C70.0101503,51.8074827 65.343654,53.8861775 60.0569418,55.3460659 C54.770208,56.8059543 49.2657006,57.5359488 43.5434269,57.5359488 C37.82111,57.5359488 32.316581,56.8059543 27.0298688,55.3460659 C21.7431494,53.8861775 17.0766459,51.8074827 13.0303728,49.1099817 C8.98407087,46.4124375 5.866018,43.3014256 3.6761926,39.7769604 C1.48636,36.2524951 0.39146528,32.5828164 0.39146528,28.7679744 C0.39146528,24.9530893 1.48637439,21.2833889 3.67619979,17.7589237 C5.866018,14.2344297 8.98407087,11.123425 13.0303728,8.42592394 C17.0766459,5.72840133 21.7431494,3.64968503 27.0298688,2.18979664 C32.316581,0.729929814 37.82111,-2.23820962e-13 43.5434269,-2.23820962e-13 C49.2657006,-2.23820962e-13 54.770208,0.729929814 60.0569418,2.18979664 C65.343654,3.64968503 70.0101503,5.72840133 74.0564378,8.42592394 C78.1027038,11.123425 81.2207566,14.2344297 83.4105964,17.7589237 C85.6004362,21.2833889 86.6953885,24.9530893 86.6953885,28.7679744 Z" id="Stroke-100" stroke="#000000"></path>
                    <text id="USER-ACTION" font-family="Helvetica" font-size="8" font-weight="normal" fill="#000000">
                        <tspan x="15.3828125" y="32">USER ACTION</tspan>
                    </text>
                </g>
                <g id="Group-11" transform="translate(111.000000, 0.000000)">
                    <polygon id="Stroke-144" stroke="#000000" points="41.5 0 83 39.5 41.5 79 0 39.5"></polygon>
                    <text id="USER-DECISION" font-family="Helvetica" font-size="8.63039232" font-weight="normal" fill="#000000">
                        <tspan x="29.5110029" y="38">USER </tspan>
                        <tspan x="20.6404092" y="49">DECISION</tspan>
                    </text>
                </g>
                <g id="Group-5-Copy-13" transform="translate(218.000000, 24.000000)">
                    <polygon id="Fill-390" stroke="#868686" fill="#F5F5F5" points="0 0 86.3039232 0 86.3039232 31.3832448 0 31.3832448"></polygon>
                    <text id="CONTENT" font-family="Helvetica" font-size="8.63039232" font-weight="normal" fill="#424242">
                        <tspan x="22.1446232" y="19">CONTENT</tspan>
                    </text>
                </g>
            </g>
        </g>
        <path d="M255,146 C255,149.84561 253.908904,153.544887 251.726776,157.097778 C249.544647,160.65067 246.437575,163.786773 242.405558,166.506074 C238.37352,169.225332 233.723457,171.320792 228.455362,172.792455 C223.187246,174.264118 217.702123,175 212,175 C206.297835,175 200.81269,174.264118 195.544595,172.792455 C190.276493,171.320792 185.626423,169.225332 181.594399,166.506074 C177.562346,163.786773 174.455274,160.65067 172.27316,157.097778 C170.091039,153.544887 169,149.84561 169,146 C169,142.154346 170.091053,138.455048 172.273167,134.902157 C174.455274,131.349236 177.562346,128.21314 181.594399,125.493883 C185.626423,122.774603 190.276493,120.679121 195.544595,119.207458 C200.81269,117.735817 206.297835,117 212,117 C217.702123,117 223.187246,117.735817 228.455362,119.207458 C233.723457,120.679121 238.37352,122.774603 242.405558,125.493883 C246.437575,128.21314 249.544647,131.349236 251.726776,134.902157 C253.908904,138.455048 255,142.154346 255,146 Z" id="Fill-99" fill="#FFFFFF"></path>
        <path d="M255,146 C255,149.84561 253.908904,153.544887 251.726776,157.097778 C249.544647,160.65067 246.437575,163.786773 242.405558,166.506074 C238.37352,169.225332 233.723457,171.320792 228.455362,172.792455 C223.187246,174.264118 217.702123,175 212,175 C206.297835,175 200.81269,174.264118 195.544595,172.792455 C190.276493,171.320792 185.626423,169.225332 181.594399,166.506074 C177.562346,163.786773 174.455274,160.65067 172.27316,157.097778 C170.091039,153.544887 169,149.84561 169,146 C169,142.154346 170.091053,138.455048 172.273167,134.902157 C174.455274,131.349236 177.562346,128.21314 181.594399,125.493883 C185.626423,122.774603 190.276493,120.679121 195.544595,119.207458 C200.81269,117.735817 206.297835,117 212,117 C217.702123,117 223.187246,117.735817 228.455362,119.207458 C233.723457,120.679121 238.37352,122.774603 242.405558,125.493883 C246.437575,128.21314 249.544647,131.349236 251.726776,134.902157 C253.908904,138.455048 255,142.154346 255,146 Z" id="Stroke-100" stroke="#000000"></path>
        <text id="Opens-My-Portfolio-f" font-family="Helvetica" font-size="8" font-weight="normal" fill="#000000">
            <tspan x="177.486328" y="138">Opens My Portfolio </tspan>
            <tspan x="180.59375" y="148">flyout and selects</tspan>
            <tspan x="179.921875" y="158">Dashboard option</tspan>
        </text>
        <path d="M390,145 C390,148.84561 388.908904,152.544887 386.726776,156.097778 C384.544647,159.65067 381.437575,162.786773 377.405558,165.506074 C373.37352,168.225332 368.723457,170.320792 363.455362,171.792455 C358.187246,173.264118 352.702123,174 347,174 C341.297835,174 335.81269,173.264118 330.544595,171.792455 C325.276493,170.320792 320.626423,168.225332 316.594399,165.506074 C312.562346,162.786773 309.455274,159.65067 307.27316,156.097778 C305.091039,152.544887 304,148.84561 304,145 C304,141.154346 305.091053,137.455048 307.273167,133.902157 C309.455274,130.349236 312.562346,127.21314 316.594399,124.493883 C320.626423,121.774603 325.276493,119.679121 330.544595,118.207458 C335.81269,116.735817 341.297835,116 347,116 C352.702123,116 358.187246,116.735817 363.455362,118.207458 C368.723457,119.679121 373.37352,121.774603 377.405558,124.493883 C381.437575,127.21314 384.544647,130.349236 386.726776,133.902157 C388.908904,137.455048 390,141.154346 390,145 Z" id="Fill-99" fill="#FFFFFF"></path>
        <path d="M391,145 C391,148.84561 389.908904,152.544887 387.726776,156.097778 C385.544647,159.65067 382.437575,162.786773 378.405558,165.506074 C374.37352,168.225332 369.723457,170.320792 364.455362,171.792455 C359.187246,173.264118 353.702123,174 348,174 C342.297835,174 336.81269,173.264118 331.544595,171.792455 C326.276493,170.320792 321.626423,168.225332 317.594399,165.506074 C313.562346,162.786773 310.455274,159.65067 308.27316,156.097778 C306.091039,152.544887 305,148.84561 305,145 C305,141.154346 306.091053,137.455048 308.273167,133.902157 C310.455274,130.349236 313.562346,127.21314 317.594399,124.493883 C321.626423,121.774603 326.276493,119.679121 331.544595,118.207458 C336.81269,116.735817 342.297835,116 348,116 C353.702123,116 359.187246,116.735817 364.455362,118.207458 C369.723457,119.679121 374.37352,121.774603 378.405558,124.493883 C382.437575,127.21314 385.544647,130.349236 387.726776,133.902157 C389.908904,137.455048 391,141.154346 391,145 Z" id="Stroke-100" stroke="#000000"></path>
        <text id="Scans-through-‘Overv" font-family="Helvetica" font-size="8" font-weight="normal" fill="#000000">
            <tspan x="321.705078" y="143">Scans through</tspan>
            <tspan x="322.974609" y="153">‘Overview’ tile</tspan>
        </text>
        <path d="M527,145 C527,148.84561 525.908904,152.544887 523.726776,156.097778 C521.544647,159.65067 518.437575,162.786773 514.405558,165.506074 C510.37352,168.225332 505.723457,170.320792 500.455362,171.792455 C495.187246,173.264118 489.702123,174 484,174 C478.297835,174 472.81269,173.264118 467.544595,171.792455 C462.276493,170.320792 457.626423,168.225332 453.594399,165.506074 C449.562346,162.786773 446.455274,159.65067 444.27316,156.097778 C442.091039,152.544887 441,148.84561 441,145 C441,141.154346 442.091053,137.455048 444.273167,133.902157 C446.455274,130.349236 449.562346,127.21314 453.594399,124.493883 C457.626423,121.774603 462.276493,119.679121 467.544595,118.207458 C472.81269,116.735817 478.297835,116 484,116 C489.702123,116 495.187246,116.735817 500.455362,118.207458 C505.723457,119.679121 510.37352,121.774603 514.405558,124.493883 C518.437575,127.21314 521.544647,130.349236 523.726776,133.902157 C525.908904,137.455048 527,141.154346 527,145 Z" id="Fill-99" fill="#FFFFFF"></path>
        <path d="M528,145 C528,148.84561 526.908904,152.544887 524.726776,156.097778 C522.544647,159.65067 519.437575,162.786773 515.405558,165.506074 C511.37352,168.225332 506.723457,170.320792 501.455362,171.792455 C496.187246,173.264118 490.702123,174 485,174 C479.297835,174 473.81269,173.264118 468.544595,171.792455 C463.276493,170.320792 458.626423,168.225332 454.594399,165.506074 C450.562346,162.786773 447.455274,159.65067 445.27316,156.097778 C443.091039,152.544887 442,148.84561 442,145 C442,141.154346 443.091053,137.455048 445.273167,133.902157 C447.455274,130.349236 450.562346,127.21314 454.594399,124.493883 C458.626423,121.774603 463.276493,119.679121 468.544595,118.207458 C473.81269,116.735817 479.297835,116 485,116 C490.702123,116 496.187246,116.735817 501.455362,118.207458 C506.723457,119.679121 511.37352,121.774603 515.405558,124.493883 C519.437575,127.21314 522.544647,130.349236 524.726776,133.902157 C526.908904,137.455048 528,141.154346 528,145 Z" id="Stroke-100" stroke="#000000"></path>
        <text id="Scans-through-‘Fund" font-family="Helvetica" font-size="8" font-weight="normal" fill="#000000">
            <tspan x="457.705078" y="137">Scans through</tspan>
            <tspan x="454.742188" y="147">‘Fund Exposure’ </tspan>
            <tspan x="460.162109" y="157">Summary tile</tspan>
        </text>
        <g id="Group-7" transform="translate(731.000000, 117.000000)">
            <path d="M86,29 C86,32.8456103 84.9089037,36.5448865 82.7267755,40.097778 C80.5446473,43.6506695 77.4375748,46.786773 73.405558,49.506074 C69.3735197,52.2253315 64.7234567,54.3207918 59.4553618,55.7924548 C54.1872455,57.2641178 48.7021225,58 43,58 C37.2978345,58 31.81269,57.2641178 26.5445952,55.7924548 C21.2764932,54.3207918 16.626423,52.2253315 12.594399,49.506074 C8.56234633,46.786773 5.45527383,43.6506695 3.27316,40.097778 C1.091039,36.5448865 0,32.8456103 0,29 C0,25.1543463 1.09105333,21.4550483 3.27316717,17.9021568 C5.45527383,14.3492363 8.56234633,11.21314 12.594399,8.4938825 C16.626423,5.77460325 21.2764932,3.67912125 26.5445952,2.20745825 C31.81269,0.735817 37.2978345,0 43,0 C48.7021225,0 54.1872455,0.735817 59.4553618,2.20745825 C64.7234567,3.67912125 69.3735197,5.77460325 73.405558,8.4938825 C77.4375748,11.21314 80.5446473,14.3492363 82.7267755,17.9021568 C84.9089037,21.4550483 86,25.1543463 86,29 Z" id="Fill-99" fill="#FFFFFF"></path>
            <path d="M87,29 C87,32.8456103 85.9089037,36.5448865 83.7267755,40.097778 C81.5446473,43.6506695 78.4375748,46.786773 74.405558,49.506074 C70.3735197,52.2253315 65.7234567,54.3207918 60.4553618,55.7924548 C55.1872455,57.2641178 49.7021225,58 44,58 C38.2978345,58 32.81269,57.2641178 27.5445952,55.7924548 C22.2764932,54.3207918 17.626423,52.2253315 13.594399,49.506074 C9.56234633,46.786773 6.45527383,43.6506695 4.27316,40.097778 C2.091039,36.5448865 1,32.8456103 1,29 C1,25.1543463 2.09105333,21.4550483 4.27316717,17.9021568 C6.45527383,14.3492363 9.56234633,11.21314 13.594399,8.4938825 C17.626423,5.77460325 22.2764932,3.67912125 27.5445952,2.20745825 C32.81269,0.735817 38.2978345,0 44,0 C49.7021225,0 55.1872455,0.735817 60.4553618,2.20745825 C65.7234567,3.67912125 70.3735197,5.77460325 74.405558,8.4938825 C78.4375748,11.21314 81.5446473,14.3492363 83.7267755,17.9021568 C85.9089037,21.4550483 87,25.1543463 87,29 Z" id="Stroke-100" stroke="#000000"></path>
            <text id="Scans-through-‘Deals" font-family="Helvetica" font-size="8" font-weight="normal" fill="#000000">
                <tspan x="16.7050781" y="21">Scans through</tspan>
                <tspan x="12.6328125" y="31">‘Deals Exposure’ </tspan>
                <tspan x="19.1621094" y="41">Summary tile</tspan>
            </text>
        </g>
        <g id="Group-3" transform="translate(575.000000, 632.000000)">
            <path d="M86.3039232,29.0294474 C86.3039232,32.8442893 85.2089709,36.5139681 83.0191312,40.0384333 C80.8292914,43.5628986 77.7112385,46.6739105 73.6649726,49.3714547 C69.618685,52.0689557 64.9521888,54.1476504 59.6654765,55.6075388 C54.3787427,57.0674272 48.8742353,57.7974218 43.1519616,57.7974218 C37.4296447,57.7974218 31.9251158,57.0674272 26.6384035,55.6075388 C21.3516841,54.1476504 16.6851806,52.0689557 12.6389075,49.3714547 C8.59260559,46.6739105 5.47455272,43.5628986 3.28472732,40.0384333 C1.09489472,36.5139681 4.26325641e-14,32.8442893 4.26325641e-14,29.0294474 C4.26325641e-14,25.2145622 1.09490911,21.5448619 3.28473451,18.0203967 C5.47455272,14.4959027 8.59260559,11.3848979 12.6389075,8.6873969 C16.6851806,5.98987429 21.3516841,3.91115799 26.6384035,2.4512696 C31.9251158,0.991402774 37.4296447,0.26147296 43.1519616,0.26147296 C48.8742353,0.26147296 54.3787427,0.991402774 59.6654765,2.4512696 C64.9521888,3.91115799 69.618685,5.98987429 73.6649726,8.6873969 C77.7112385,11.3848979 80.8292914,14.4959027 83.0191312,18.0203967 C85.2089709,21.5448619 86.3039232,25.2145622 86.3039232,29.0294474 Z" id="Fill-99" fill="#FFFFFF"></path>
            <path d="M86.6953885,28.7679744 C86.6953885,32.5828164 85.6004362,36.2524951 83.4105964,39.7769604 C81.2207566,43.3014256 78.1027038,46.4124375 74.0564378,49.1099817 C70.0101503,51.8074827 65.343654,53.8861775 60.0569418,55.3460659 C54.770208,56.8059543 49.2657006,57.5359488 43.5434269,57.5359488 C37.82111,57.5359488 32.316581,56.8059543 27.0298688,55.3460659 C21.7431494,53.8861775 17.0766459,51.8074827 13.0303728,49.1099817 C8.98407087,46.4124375 5.866018,43.3014256 3.6761926,39.7769604 C1.48636,36.2524951 0.39146528,32.5828164 0.39146528,28.7679744 C0.39146528,24.9530893 1.48637439,21.2833889 3.67619979,17.7589237 C5.866018,14.2344297 8.98407087,11.123425 13.0303728,8.42592394 C17.0766459,5.72840133 21.7431494,3.64968503 27.0298688,2.18979664 C32.316581,0.729929814 37.82111,-2.23820962e-13 43.5434269,-2.23820962e-13 C49.2657006,-2.23820962e-13 54.770208,0.729929814 60.0569418,2.18979664 C65.343654,3.64968503 70.0101503,5.72840133 74.0564378,8.42592394 C78.1027038,11.123425 81.2207566,14.2344297 83.4105964,17.7589237 C85.6004362,21.2833889 86.6953885,24.9530893 86.6953885,28.7679744 Z" id="Stroke-100" stroke="#000000"></path>
            <text id="Clicks-View-Deals-Ex" font-family="Helvetica" font-size="8" font-weight="normal" fill="#000000">
                <tspan x="31.8339844" y="21.261473">Clicks</tspan>
                <tspan x="22.5625" y="31.261473">View Deals </tspan>
                <tspan x="25.6015625" y="41.261473">Exposure</tspan>
            </text>
        </g>
        <g id="Group-3" transform="translate(711.000000, 630.000000)">
            <path d="M86.3039232,29.0294474 C86.3039232,32.8442893 85.2089709,36.5139681 83.0191312,40.0384333 C80.8292914,43.5628986 77.7112385,46.6739105 73.6649726,49.3714547 C69.618685,52.0689557 64.9521888,54.1476504 59.6654765,55.6075388 C54.3787427,57.0674272 48.8742353,57.7974218 43.1519616,57.7974218 C37.4296447,57.7974218 31.9251158,57.0674272 26.6384035,55.6075388 C21.3516841,54.1476504 16.6851806,52.0689557 12.6389075,49.3714547 C8.59260559,46.6739105 5.47455272,43.5628986 3.28472732,40.0384333 C1.09489472,36.5139681 4.26325641e-14,32.8442893 4.26325641e-14,29.0294474 C4.26325641e-14,25.2145622 1.09490911,21.5448619 3.28473451,18.0203967 C5.47455272,14.4959027 8.59260559,11.3848979 12.6389075,8.6873969 C16.6851806,5.98987429 21.3516841,3.91115799 26.6384035,2.4512696 C31.9251158,0.991402774 37.4296447,0.26147296 43.1519616,0.26147296 C48.8742353,0.26147296 54.3787427,0.991402774 59.6654765,2.4512696 C64.9521888,3.91115799 69.618685,5.98987429 73.6649726,8.6873969 C77.7112385,11.3848979 80.8292914,14.4959027 83.0191312,18.0203967 C85.2089709,21.5448619 86.3039232,25.2145622 86.3039232,29.0294474 Z" id="Fill-99" fill="#FFFFFF"></path>
            <path d="M86.6953885,28.7679744 C86.6953885,32.5828164 85.6004362,36.2524951 83.4105964,39.7769604 C81.2207566,43.3014256 78.1027038,46.4124375 74.0564378,49.1099817 C70.0101503,51.8074827 65.343654,53.8861775 60.0569418,55.3460659 C54.770208,56.8059543 49.2657006,57.5359488 43.5434269,57.5359488 C37.82111,57.5359488 32.316581,56.8059543 27.0298688,55.3460659 C21.7431494,53.8861775 17.0766459,51.8074827 13.0303728,49.1099817 C8.98407087,46.4124375 5.866018,43.3014256 3.6761926,39.7769604 C1.48636,36.2524951 0.39146528,32.5828164 0.39146528,28.7679744 C0.39146528,24.9530893 1.48637439,21.2833889 3.67619979,17.7589237 C5.866018,14.2344297 8.98407087,11.123425 13.0303728,8.42592394 C17.0766459,5.72840133 21.7431494,3.64968503 27.0298688,2.18979664 C32.316581,0.729929814 37.82111,-2.23820962e-13 43.5434269,-2.23820962e-13 C49.2657006,-2.23820962e-13 54.770208,0.729929814 60.0569418,2.18979664 C65.343654,3.64968503 70.0101503,5.72840133 74.0564378,8.42592394 C78.1027038,11.123425 81.2207566,14.2344297 83.4105964,17.7589237 C85.6004362,21.2833889 86.6953885,24.9530893 86.6953885,28.7679744 Z" id="Stroke-100" stroke="#000000"></path>
            <text id="User-scans-through-c" font-family="Helvetica" font-size="8" font-weight="normal" fill="#000000">
                <tspan x="23.9941406" y="17">User scans </tspan>
                <tspan x="20.4296875" y="27">through chart </tspan>
                <tspan x="13.09375" y="37">visual breakdown </tspan>
                <tspan x="29.7675781" y="47">of funds</tspan>
            </text>
        </g>
        <g id="Group-3" transform="translate(867.000000, 291.000000)">
            <path d="M86.3039232,29.0294474 C86.3039232,32.8442893 85.2089709,36.5139681 83.0191312,40.0384333 C80.8292914,43.5628986 77.7112385,46.6739105 73.6649726,49.3714547 C69.618685,52.0689557 64.9521888,54.1476504 59.6654765,55.6075388 C54.3787427,57.0674272 48.8742353,57.7974218 43.1519616,57.7974218 C37.4296447,57.7974218 31.9251158,57.0674272 26.6384035,55.6075388 C21.3516841,54.1476504 16.6851806,52.0689557 12.6389075,49.3714547 C8.59260559,46.6739105 5.47455272,43.5628986 3.28472732,40.0384333 C1.09489472,36.5139681 4.26325641e-14,32.8442893 4.26325641e-14,29.0294474 C4.26325641e-14,25.2145622 1.09490911,21.5448619 3.28473451,18.0203967 C5.47455272,14.4959027 8.59260559,11.3848979 12.6389075,8.6873969 C16.6851806,5.98987429 21.3516841,3.91115799 26.6384035,2.4512696 C31.9251158,0.991402774 37.4296447,0.26147296 43.1519616,0.26147296 C48.8742353,0.26147296 54.3787427,0.991402774 59.6654765,2.4512696 C64.9521888,3.91115799 69.618685,5.98987429 73.6649726,8.6873969 C77.7112385,11.3848979 80.8292914,14.4959027 83.0191312,18.0203967 C85.2089709,21.5448619 86.3039232,25.2145622 86.3039232,29.0294474 Z" id="Fill-99" fill="#FFFFFF"></path>
            <path d="M86.6953885,28.7679744 C86.6953885,32.5828164 85.6004362,36.2524951 83.4105964,39.7769604 C81.2207566,43.3014256 78.1027038,46.4124375 74.0564378,49.1099817 C70.0101503,51.8074827 65.343654,53.8861775 60.0569418,55.3460659 C54.770208,56.8059543 49.2657006,57.5359488 43.5434269,57.5359488 C37.82111,57.5359488 32.316581,56.8059543 27.0298688,55.3460659 C21.7431494,53.8861775 17.0766459,51.8074827 13.0303728,49.1099817 C8.98407087,46.4124375 5.866018,43.3014256 3.6761926,39.7769604 C1.48636,36.2524951 0.39146528,32.5828164 0.39146528,28.7679744 C0.39146528,24.9530893 1.48637439,21.2833889 3.67619979,17.7589237 C5.866018,14.2344297 8.98407087,11.123425 13.0303728,8.42592394 C17.0766459,5.72840133 21.7431494,3.64968503 27.0298688,2.18979664 C32.316581,0.729929814 37.82111,-2.23820962e-13 43.5434269,-2.23820962e-13 C49.2657006,-2.23820962e-13 54.770208,0.729929814 60.0569418,2.18979664 C65.343654,3.64968503 70.0101503,5.72840133 74.0564378,8.42592394 C78.1027038,11.123425 81.2207566,14.2344297 83.4105964,17.7589237 C85.6004362,21.2833889 86.6953885,24.9530893 86.6953885,28.7679744 Z" id="Stroke-100" stroke="#000000"></path>
            <text id="Clicks-View-Deals-Ex" font-family="Helvetica" font-size="8" font-weight="normal" fill="#000000">
                <tspan x="31.8339844" y="21.261473">Clicks</tspan>
                <tspan x="22.5625" y="31.261473">View Deals </tspan>
                <tspan x="25.6015625" y="41.261473">Exposure</tspan>
            </text>
        </g>
        <path id="Stroke-134" d="M620.158224,181 L620.158223,394.356045 L619.856,574.5 L623.856028,574.507561 L619.340937,583.499999 L614.856041,574.492463 L618.856,574.499 L619.158224,394.355206 L619.158224,181 L620.158224,181 Z" fill="#000000" fill-rule="nonzero"></path>
        <polygon id="Fill-139" fill="#FFFFFF" points="538 300 549 300 549 310 538 310"></polygon>
        <polygon id="Fill-142" fill="#FFFFFF" points="619.5 105 661 144.5 619.5 184 578 144.5"></polygon>
        <polygon id="Stroke-144" stroke="#000000" points="619.5 105 661 144.5 619.5 184 578 144.5"></polygon>
        <path id="Stroke-200" d="M158.5,141 L167.5,145.5 L158.5,150 L158.5,146 L117,146 L117,145 L158.5,145 L158.5,141 Z" fill="#000000" fill-rule="nonzero"></path>
        <path d="M117,146 C117,149.84561 115.908936,153.544887 113.726813,157.097778 C111.54469,160.65067 108.437618,163.786773 104.405586,166.506074 C100.373549,169.225332 95.7234825,171.320792 90.4553826,172.792455 C85.1872821,174.264118 79.7021512,175 74,175 C68.2978438,175 62.8127129,174.264118 57.5446095,172.792455 C52.2765061,171.320792 47.6264402,169.225332 43.5944083,166.506074 C39.5623759,163.786773 36.4552998,160.65067 34.2731799,157.097778 C32.0910599,153.544887 31,149.84561 31,146 C31,142.154346 32.0910599,138.455048 34.2731799,134.902157 C36.4552998,131.349236 39.5623759,128.21314 43.5944083,125.493883 C47.6264402,122.774603 52.2765061,120.679121 57.5446095,119.207458 C62.8127129,117.735817 68.2978438,117 74,117 C79.7021512,117 85.1872821,117.735817 90.4553826,119.207458 C95.7234825,120.679121 100.373549,122.774603 104.405586,125.493883 C108.437618,128.21314 111.54469,131.349236 113.726813,134.902157 C115.908936,138.455048 117,142.154346 117,146 Z" id="Fill-204" fill="#FFFFFF"></path>
        <path d="M117,146 C117,149.84561 115.908936,153.544887 113.726813,157.097778 C111.54469,160.65067 108.437618,163.786773 104.405586,166.506074 C100.373549,169.225332 95.7234825,171.320792 90.4553826,172.792455 C85.1872821,174.264118 79.7021512,175 74,175 C68.2978438,175 62.8127129,174.264118 57.5446095,172.792455 C52.2765061,171.320792 47.6264402,169.225332 43.5944083,166.506074 C39.5623759,163.786773 36.4552998,160.65067 34.2731799,157.097778 C32.0910599,153.544887 31,149.84561 31,146 C31,142.154346 32.0910599,138.455048 34.2731799,134.902157 C36.4552998,131.349236 39.5623759,128.21314 43.5944083,125.493883 C47.6264402,122.774603 52.2765061,120.679121 57.5446095,119.207458 C62.8127129,117.735817 68.2978438,117 74,117 C79.7021512,117 85.1872821,117.735817 90.4553826,119.207458 C95.7234825,120.679121 100.373549,122.774603 104.405586,125.493883 C108.437618,128.21314 111.54469,131.349236 113.726813,134.902157 C115.908936,138.455048 117,142.154346 117,146 Z" id="Stroke-205" stroke="#000000"></path>
        <text id="Lands-on-Preqin-Home" font-family="Helvetica" font-size="8" font-weight="normal" fill="#000000">
            <tspan x="45.3671875" y="144">Lands on Preqin</tspan>
            <tspan x="54.9316406" y="154">Homepage</tspan>
        </text>
        <g id="Group-5" transform="translate(712.000000, 732.000000)">
            <polygon id="Fill-390" stroke="#868686" fill="#F5F5F5" points="0 0 86.3039232 0 86.3039232 31.3832448 0 31.3832448"></polygon>
            <text id="Strategy-Chart" font-family="Helvetica" font-size="8.63039232" font-weight="normal" fill="#424242">
                <tspan x="15.1787841" y="19.8636364">Strategy Chart</tspan>
            </text>
        </g>
        <g id="Group-5" transform="translate(712.000000, 694.000000)">
            <polygon id="Fill-390" stroke="#868686" fill="#F5F5F5" points="0 0 86.3039232 0 86.3039232 31.3832448 0 31.3832448"></polygon>
            <text id="Toggle-btw-Funds-&amp;-C" font-family="Helvetica" font-size="8.63039232" font-weight="normal" fill="#424242">
                <tspan x="5.60086263" y="14">Toggle btw Funds &amp; </tspan>
                <tspan x="3.20938429" y="25">Commitment Amount</tspan>
            </text>
        </g>
        <g id="Group-5-Copy" transform="translate(712.000000, 770.000000)">
            <polygon id="Fill-390" stroke="#868686" fill="#F5F5F5" points="0 0 86.3039232 0 86.3039232 31.3832448 0 31.3832448"></polygon>
            <text id="Geography-Chart" font-family="Helvetica" font-size="8.63039232" font-weight="normal" fill="#424242">
                <tspan x="9.89856852" y="19.1363636">Geography Chart</tspan>
            </text>
        </g>
        <g id="Group-5-Copy-2" transform="translate(712.000000, 808.000000)">
            <polygon id="Fill-390" stroke="#868686" fill="#F5F5F5" points="0 0 86.3039232 0 86.3039232 31.3832448 0 31.3832448"></polygon>
            <text id="Vintage-Chart" font-family="Helvetica" font-size="8.63039232" font-weight="normal" fill="#424242">
                <tspan x="16.6895242" y="19.1363636">Vintage Chart</tspan>
            </text>
        </g>
        <g id="Group-5-Copy-3" transform="translate(712.000000, 846.000000)">
            <polygon id="Fill-390" stroke="#868686" fill="#F5F5F5" points="0 0 86.3039232 0 86.3039232 31.3832448 0 31.3832448"></polygon>
            <text id="Asset-Class-Chart" font-family="Helvetica" font-size="8.63039232" font-weight="normal" fill="#424242">
                <tspan x="8.46789557" y="19.1363636">Asset Class Chart</tspan>
            </text>
        </g>
        <g id="Group-5" transform="translate(848.000000, 694.000000)">
            <polygon id="Fill-390" stroke="#868686" fill="#F5F5F5" points="0 0 86.3039232 0 86.3039232 31.3832448 0 31.3832448"></polygon>
            <text id="Strategy-Filter" font-family="Helvetica" font-size="8.63039232" font-weight="normal" fill="#424242">
                <tspan x="16.1416966" y="19.8636364">Strategy Filter</tspan>
            </text>
        </g>
        <g id="Group-5" transform="translate(985.000000, 694.000000)">
            <polygon id="Fill-390" stroke="#868686" fill="#F5F5F5" points="0 0 86.3039232 0 86.3039232 31.3832448 0 31.3832448"></polygon>
            <text id="Export-Chart" font-family="Helvetica" font-size="8.63039232" font-weight="normal" fill="#424242">
                <tspan x="18.7775903" y="19.8636364">Export Chart</tspan>
            </text>
        </g>
        <g id="Group-5-Copy" transform="translate(848.000000, 732.000000)">
            <polygon id="Fill-390" stroke="#868686" fill="#F5F5F5" points="0 0 86.3039232 0 86.3039232 31.3832448 0 31.3832448"></polygon>
            <text id="Geography-Filter" font-family="Helvetica" font-size="8.63039232" font-weight="normal" fill="#424242">
                <tspan x="10.8614809" y="19.1363636">Geography Filter</tspan>
            </text>
        </g>
        <g id="Group-5-Copy-2" transform="translate(848.000000, 770.000000)">
            <polygon id="Fill-390" stroke="#868686" fill="#F5F5F5" points="0 0 86.3039232 0 86.3039232 31.3832448 0 31.3832448"></polygon>
            <text id="Vintage-Filter" font-family="Helvetica" font-size="8.63039232" font-weight="normal" fill="#424242">
                <tspan x="17.6524366" y="19.1363636">Vintage Filter</tspan>
            </text>
        </g>
        <g id="Group-5" transform="translate(1006.000000, 397.000000)">
            <polygon id="Fill-390" stroke="#868686" fill="#F5F5F5" points="0 0 86.3039232 0 86.3039232 31.3832448 0 31.3832448"></polygon>
            <text id="Location-Chart" font-family="Helvetica" font-size="8.63039232" font-weight="normal" fill="#424242">
                <tspan x="14.9343687" y="19.8636364">Location Chart</tspan>
            </text>
        </g>
        <g id="Group-5" transform="translate(1006.000000, 357.000000)">
            <polygon id="Fill-390" stroke="#868686" fill="#F5F5F5" points="0 0 86.3039232 0 86.3039232 31.3832448 0 31.3832448"></polygon>
            <text id="Toggle-btw-#-of-Deal" font-family="Helvetica" font-size="8.63039232" font-weight="normal" fill="#424242">
                <tspan x="2.24225781" y="14">Toggle btw # of Deals </tspan>
                <tspan x="14.309215" y="25">and Deal Value</tspan>
            </text>
        </g>
        <g id="Group-5-Copy" transform="translate(1006.000000, 437.000000)">
            <polygon id="Fill-390" stroke="#868686" fill="#F5F5F5" points="0 0 86.3039232 0 86.3039232 31.3832448 0 31.3832448"></polygon>
            <text id="Industry-Chart" font-family="Helvetica" font-size="8.63039232" font-weight="normal" fill="#424242">
                <tspan x="15.8993882" y="19.1363636">Industry Chart</tspan>
            </text>
        </g>
        <g id="Group-5-Copy-2" transform="translate(1006.000000, 477.000000)">
            <polygon id="Fill-390" stroke="#868686" fill="#F5F5F5" points="0 0 86.3039232 0 86.3039232 31.3832448 0 31.3832448"></polygon>
            <text id="Year-Invested-Chart" font-family="Helvetica" font-size="8.63039232" font-weight="normal" fill="#424242">
                <tspan x="5.01868849" y="19">Year Invested Chart</tspan>
            </text>
        </g>
        <g id="Group-5-Copy-6" transform="translate(732.000000, 183.000000)">
            <polygon id="Fill-390" stroke="#868686" fill="#F5F5F5" points="0 0 86.3039232 0 86.3039232 31.3832448 0 31.3832448"></polygon>
            <text id="Total-Deals-Exposure" font-family="Helvetica" font-size="8.63039232" font-weight="normal" fill="#424242">
                <tspan x="21.6536854" y="14">Total Deals</tspan>
                <tspan x="5.10507669" y="25">Exposure Bar Chart</tspan>
            </text>
        </g>
        <g id="Group-5-Copy-5" transform="translate(732.000000, 223.000000)">
            <polygon id="Fill-390" stroke="#868686" fill="#F5F5F5" points="0 0 86.3039232 0 86.3039232 31.3832448 0 31.3832448"></polygon>
            <text id="Last-10-Deal-Transac" font-family="Helvetica" font-size="8.63039232" font-weight="normal" fill="#424242">
                <tspan x="18.7712692" y="14">Last 10 Deal</tspan>
                <tspan x="7.01615233" y="25">Transactions Table</tspan>
            </text>
        </g>
        <g id="Group-5-Copy-8" transform="translate(441.000000, 183.000000)">
            <polygon id="Fill-390" stroke="#868686" fill="#F5F5F5" points="0 0 86.3039232 0 86.3039232 31.3832448 0 31.3832448"></polygon>
            <text id="Total-Funds-Exposure" font-family="Helvetica" font-size="8.63039232" font-weight="normal" fill="#424242">
                <tspan x="20.69288" y="14">Total Funds </tspan>
                <tspan x="5.10507669" y="25">Exposure Bar Chart</tspan>
            </text>
        </g>
        <g id="Group-5-Copy-7" transform="translate(441.000000, 223.000000)">
            <polygon id="Fill-390" stroke="#868686" fill="#F5F5F5" points="0 0 86.3039232 0 86.3039232 31.3832448 0 31.3832448"></polygon>
            <text id="Last-10-Fund-Commitm" font-family="Helvetica" font-size="8.63039232" font-weight="normal" fill="#424242">
                <tspan x="17.8104638" y="14">Last 10 Fund </tspan>
                <tspan x="4.94704949" y="25">Commitments Table</tspan>
            </text>
        </g>
        <g id="Group-5-Copy-10" transform="translate(305.000000, 183.000000)">
            <polygon id="Fill-390" stroke="#868686" fill="#F5F5F5" points="0 0 86.3039232 0 86.3039232 31.3832448 0 31.3832448"></polygon>
            <text id="Number-of-Active-Fun" font-family="Helvetica" font-size="8.63039232" font-weight="normal" fill="#424242">
                <tspan x="10.1408769" y="14">Number of Active </tspan>
                <tspan x="31.0067888" y="25">Funds</tspan>
            </text>
        </g>
        <g id="Group-5-Copy-11" transform="translate(305.000000, 223.000000)">
            <polygon id="Fill-390" stroke="#868686" fill="#F5F5F5" points="0 0 86.3039232 0 86.3039232 31.3832448 0 31.3832448"></polygon>
            <text id="Total-Committed-Capi" font-family="Helvetica" font-size="8.63039232" font-weight="normal" fill="#424242">
                <tspan x="11.8243934" y="14">Total Committed </tspan>
                <tspan x="9.19060665" y="25">Capital (USD mn)</tspan>
            </text>
        </g>
        <g id="Group-5-Copy-12" transform="translate(305.000000, 263.000000)">
            <polygon id="Fill-390" stroke="#868686" fill="#F5F5F5" points="0 0 86.3039232 0 86.3039232 31.3832448 0 31.3832448"></polygon>
            <text id="Number-of-Deals" font-family="Helvetica" font-size="8.63039232" font-weight="normal" fill="#424242">
                <tspan x="10.6233866" y="19">Number of Deals</tspan>
            </text>
        </g>
        <g id="Group-5-Copy-3" transform="translate(1006.000000, 517.000000)">
            <polygon id="Fill-390" stroke="#868686" fill="#F5F5F5" points="0 0 86.3039232 0 86.3039232 31.3832448 0 31.3832448"></polygon>
            <text id="Deal-Type-Chart" font-family="Helvetica" font-size="8.63039232" font-weight="normal" fill="#424242">
                <tspan x="11.8939253" y="19">Deal Type Chart</tspan>
            </text>
        </g>
        <g id="Group-6" transform="translate(1142.000000, 357.000000)">
            <polygon id="Fill-390" stroke="#868686" fill="#F5F5F5" points="0 1.22568622e-13 86.3039232 1.22568622e-13 86.3039232 31.3832448 0 31.3832448"></polygon>
            <text id="Location-Filter" font-family="Helvetica" font-size="8.63039232" font-weight="normal" fill="#424242">
                <tspan x="15.8972811" y="19.8636364">Location Filter</tspan>
            </text>
        </g>
        <g id="Group-5" transform="translate(1279.000000, 357.000000)">
            <polygon id="Fill-390" stroke="#868686" fill="#F5F5F5" points="0 0 86.3039232 0 86.3039232 31.3832448 0 31.3832448"></polygon>
            <text id="Export-Chart" font-family="Helvetica" font-size="8.63039232" font-weight="normal" fill="#424242">
                <tspan x="18.7775903" y="19.8636364">Export Chart</tspan>
            </text>
        </g>
        <g id="Group-8" transform="translate(1142.000000, 397.000000)">
            <polygon id="Fill-390" stroke="#868686" fill="#F5F5F5" points="0 1.22568622e-13 86.3039232 1.22568622e-13 86.3039232 31.3832448 0 31.3832448"></polygon>
            <text id="Industry-Filter" font-family="Helvetica" font-size="8.63039232" font-weight="normal" fill="#424242">
                <tspan x="16.8623006" y="19.1363636">Industry Filter</tspan>
            </text>
        </g>
        <g id="Group-9" transform="translate(1142.000000, 437.000000)">
            <polygon id="Fill-390" stroke="#868686" fill="#F5F5F5" points="0 0 86.3039232 0 86.3039232 31.3832448 0 31.3832448"></polygon>
            <text id="Year-Invested-Filter" font-family="Helvetica" font-size="8.63039232" font-weight="normal" fill="#424242">
                <tspan x="6.48160091" y="19">Year Invested Filter</tspan>
            </text>
        </g>
        <g id="Group-9-Copy" transform="translate(1142.000000, 477.000000)">
            <polygon id="Fill-390" stroke="#868686" fill="#F5F5F5" points="0 0 86.3039232 0 86.3039232 31.3832448 0 31.3832448"></polygon>
            <text id="Deal-Type-Filter" font-family="Helvetica" font-size="8.63039232" font-weight="normal" fill="#424242">
                <tspan x="13.3568378" y="19">Deal Type Filter</tspan>
            </text>
        </g>
        <g id="Group-10" transform="translate(30.000000, 30.000000)">
            <g id="Group-4">
                <polygon id="Rectangle" fill="#E2E2E2" points="0 0 275 0 275 14 275 28 0 28"></polygon>
                <text id="PREQIN-HOMEPAGE" font-family="Lato-Bold, Lato" font-size="14" font-weight="bold" fill="#333333">
                    <tspan x="70" y="20">PREQIN HOMEPAGE</tspan>
                </text>
            </g>
            <g id="Group-2" transform="translate(275.000000, 0.000000)">
                <rect id="Rectangle" fill="#D4ECFF" x="0" y="0" width="1202" height="28"></rect>
                <text id="MY-PORTFOLIO" font-family="Lato-Bold, Lato" font-size="14" font-weight="bold" fill="#333333">
                    <tspan x="550.3955" y="20">MY PORTFOLIO</tspan>
                </text>
            </g>
        </g>
        <text id="MY-PORTFOLIO-&gt;-DASHB" font-family="Lato-Bold, Lato" font-size="11" font-weight="bold" fill="#333333">
            <tspan x="618.0235" y="86">MY PORTFOLIO &gt; DASHBOARD</tspan>
        </text>
        <text id="View-where-committed" font-family="Helvetica" font-size="8.63039232" font-weight="normal" fill="#000000">
            <tspan x="597.27084" y="136">View where </tspan>
            <tspan x="587.125494" y="147">committed cap is </tspan>
            <tspan x="599.826667" y="158">allocated?</tspan>
        </text>
        <path id="Stroke-134" d="M911.158224,181 L911.158201,218.156221 L910.923,242.505 L914.923448,242.543743 L910.33696,251.499977 L905.923866,242.457046 L909.923,242.495 L910.158224,218.151404 L910.158224,181 L911.158224,181 Z" fill="#000000" fill-rule="nonzero"></path>
        <polygon id="Fill-142" fill="#FFFFFF" points="910.5 105 952 144.5 910.5 184 869 144.5"></polygon>
        <polygon id="Stroke-144" stroke="#000000" points="910.5 105 952 144.5 910.5 184 869 144.5"></polygon>
        <text id="View-what-funds-are" font-family="Helvetica" font-size="8.63039232" font-weight="normal" fill="#000000">
            <tspan x="879.653724" y="142">View what funds </tspan>
            <tspan x="879.575764" y="153">are investing in?</tspan>
        </text>
        <g id="Group" transform="translate(1023.000000, 134.000000)">
            <g id="Group-610" fill="#F8CECC" stroke="#B85450">
                <polygon id="Fill-607" points="0.231752312 0.852173313 70.2317523 0.852173313 70.2317523 20.8521733 0.231752312 20.8521733"></polygon>
            </g>
            <text id="end-of-journey" font-family="Helvetica" font-size="8.6310396" font-weight="normal" fill="#000000">
                <tspan x="8" y="14">end of journey</tspan>
            </text>
        </g>
        <g id="No" transform="translate(606.000000, 371.000000)">
            <rect id="Rectangle" fill="#FFFFFF" x="0" y="0" width="26" height="18"></rect>
            <text id="Yes" font-family="Helvetica" font-size="12" font-weight="normal" fill="#000000">
                <tspan x="3.21191406" y="13">Yes</tspan>
            </text>
        </g>
        <g id="No" transform="translate(898.000000, 207.000000)">
            <rect id="Rectangle" fill="#FFFFFF" x="0" y="0" width="26" height="18"></rect>
            <text id="Yes" font-family="Helvetica" font-size="12" font-weight="normal" fill="#000000">
                <tspan x="3.21191406" y="13">Yes</tspan>
            </text>
        </g>
        <path id="Stroke-95" d="M296.5,141 L305.5,145.5 L296.5,150 L296.5,146 L255,146 L255,145 L296.5,145 L296.5,141 Z" fill="#000000" fill-rule="nonzero"></path>
        <path id="Stroke-95" d="M432.5,140 L441.5,144.5 L432.5,149 L432.5,145 L391,145 L391,144 L432.5,144 L432.5,140 Z" fill="#000000" fill-rule="nonzero"></path>
        <path id="Stroke-95" d="M569.5,140 L578.5,144.5 L569.5,149 L569.5,145 L528,145 L528,144 L569.5,144 L569.5,140 Z" fill="#000000" fill-rule="nonzero"></path>
        <path id="Stroke-95" d="M722.5,140 L731.5,144.5 L722.5,149 L722.5,145 L661,145 L661,144 L722.5,144 L722.5,140 Z" fill="#000000" fill-rule="nonzero"></path>
        <path id="Stroke-95" d="M859.5,140 L868.5,144.5 L859.5,149 L859.5,145 L818,145 L818,144 L859.5,144 L859.5,140 Z" fill="#000000" fill-rule="nonzero"></path>
        <g id="Group-3" transform="translate(848.000000, 630.000000)">
            <path d="M86.3039232,28.7679744 C86.3039232,32.5828164 85.2089709,36.2524951 83.0191312,39.7769604 C80.8292914,43.3014256 77.7112385,46.4124375 73.6649726,49.1099817 C69.618685,51.8074827 64.9521888,53.8861775 59.6654765,55.3460659 C54.3787427,56.8059543 48.8742353,57.5359488 43.1519616,57.5359488 C37.4296447,57.5359488 31.9251158,56.8059543 26.6384035,55.3460659 C21.3516841,53.8861775 16.6851806,51.8074827 12.6389075,49.1099817 C8.59260559,46.4124375 5.47455272,43.3014256 3.28472732,39.7769604 C1.09489472,36.2524951 0,32.5828164 0,28.7679744 C0,24.9530893 1.09490911,21.2833889 3.28473451,17.7589237 C5.47455272,14.2344297 8.59260559,11.123425 12.6389075,8.42592394 C16.6851806,5.72840133 21.3516841,3.64968503 26.6384035,2.18979664 C31.9251158,0.729929814 37.4296447,0 43.1519616,0 C48.8742353,0 54.3787427,0.729929814 59.6654765,2.18979664 C64.9521888,3.64968503 69.618685,5.72840133 73.6649726,8.42592394 C77.7112385,11.123425 80.8292914,14.2344297 83.0191312,17.7589237 C85.2089709,21.2833889 86.3039232,24.9530893 86.3039232,28.7679744 Z" id="Fill-99" fill="#FFFFFF"></path>
            <path d="M86.6953885,28.7679744 C86.6953885,32.5828164 85.6004362,36.2524951 83.4105964,39.7769604 C81.2207566,43.3014256 78.1027038,46.4124375 74.0564378,49.1099817 C70.0101503,51.8074827 65.343654,53.8861775 60.0569418,55.3460659 C54.770208,56.8059543 49.2657006,57.5359488 43.5434269,57.5359488 C37.82111,57.5359488 32.316581,56.8059543 27.0298688,55.3460659 C21.7431494,53.8861775 17.0766459,51.8074827 13.0303728,49.1099817 C8.98407087,46.4124375 5.866018,43.3014256 3.6761926,39.7769604 C1.48636,36.2524951 0.39146528,32.5828164 0.39146528,28.7679744 C0.39146528,24.9530893 1.48637439,21.2833889 3.67619979,17.7589237 C5.866018,14.2344297 8.98407087,11.123425 13.0303728,8.42592394 C17.0766459,5.72840133 21.7431494,3.64968503 27.0298688,2.18979664 C32.316581,0.729929814 37.82111,-2.23820962e-13 43.5434269,-2.23820962e-13 C49.2657006,-2.23820962e-13 54.770208,0.729929814 60.0569418,2.18979664 C65.343654,3.64968503 70.0101503,5.72840133 74.0564378,8.42592394 C78.1027038,11.123425 81.2207566,14.2344297 83.4105964,17.7589237 C85.6004362,21.2833889 86.6953885,24.9530893 86.6953885,28.7679744 Z" id="Stroke-100" stroke="#000000"></path>
            <text id="User-utilizes-top-fi" font-family="Helvetica" font-size="8" font-weight="normal" fill="#000000">
                <tspan x="14.0449219" y="22">User utilizes top </tspan>
                <tspan x="15.1582031" y="32">filters to narrow </tspan>
                <tspan x="22.0410156" y="42">down funds</tspan>
            </text>
        </g>
        <path id="Stroke-95" d="M1013.5,140 L1022.5,144.5 L1013.5,149 L1013.5,145 L952,145 L952,144 L1013.5,144 L1013.5,140 Z" fill="#000000" fill-rule="nonzero"></path>
        <g id="Group" transform="translate(1143.000000, 650.000000)">
            <g id="Group-610" fill="#F8CECC" stroke="#B85450">
                <polygon id="Fill-607" points="0.231752312 0.852173313 70.2317523 0.852173313 70.2317523 20.8521733 0.231752312 20.8521733"></polygon>
            </g>
            <text id="end-of-journey" font-family="Helvetica" font-size="8.6310396" font-weight="normal" fill="#000000">
                <tspan x="8" y="14">end of journey</tspan>
            </text>
        </g>
        <g id="No" transform="translate(971.000000, 135.000000)">
            <rect id="Rectangle" fill="#FFFFFF" x="0" y="0" width="26" height="18"></rect>
            <text font-family="Helvetica" font-size="12" font-weight="normal" fill="#000000">
                <tspan x="5.33007812" y="13">No</tspan>
            </text>
        </g>
        <g id="No" transform="translate(680.000000, 135.000000)">
            <rect id="Rectangle" fill="#FFFFFF" x="0" y="0" width="26" height="18"></rect>
            <text font-family="Helvetica" font-size="12" font-weight="normal" fill="#000000">
                <tspan x="5.33007812" y="13">No</tspan>
            </text>
        </g>
        <g id="Group-3" transform="translate(985.000000, 630.000000)">
            <path d="M86.3039232,29.0294474 C86.3039232,32.8442893 85.2089709,36.5139681 83.0191312,40.0384333 C80.8292914,43.5628986 77.7112385,46.6739105 73.6649726,49.3714547 C69.618685,52.0689557 64.9521888,54.1476504 59.6654765,55.6075388 C54.3787427,57.0674272 48.8742353,57.7974218 43.1519616,57.7974218 C37.4296447,57.7974218 31.9251158,57.0674272 26.6384035,55.6075388 C21.3516841,54.1476504 16.6851806,52.0689557 12.6389075,49.3714547 C8.59260559,46.6739105 5.47455272,43.5628986 3.28472732,40.0384333 C1.09489472,36.5139681 4.26325641e-14,32.8442893 4.26325641e-14,29.0294474 C4.26325641e-14,25.2145622 1.09490911,21.5448619 3.28473451,18.0203967 C5.47455272,14.4959027 8.59260559,11.3848979 12.6389075,8.6873969 C16.6851806,5.98987429 21.3516841,3.91115799 26.6384035,2.4512696 C31.9251158,0.991402774 37.4296447,0.26147296 43.1519616,0.26147296 C48.8742353,0.26147296 54.3787427,0.991402774 59.6654765,2.4512696 C64.9521888,3.91115799 69.618685,5.98987429 73.6649726,8.6873969 C77.7112385,11.3848979 80.8292914,14.4959027 83.0191312,18.0203967 C85.2089709,21.5448619 86.3039232,25.2145622 86.3039232,29.0294474 Z" id="Fill-99" fill="#FFFFFF"></path>
            <path d="M86.6953885,28.7679744 C86.6953885,32.5828164 85.6004362,36.2524951 83.4105964,39.7769604 C81.2207566,43.3014256 78.1027038,46.4124375 74.0564378,49.1099817 C70.0101503,51.8074827 65.343654,53.8861775 60.0569418,55.3460659 C54.770208,56.8059543 49.2657006,57.5359488 43.5434269,57.5359488 C37.82111,57.5359488 32.316581,56.8059543 27.0298688,55.3460659 C21.7431494,53.8861775 17.0766459,51.8074827 13.0303728,49.1099817 C8.98407087,46.4124375 5.866018,43.3014256 3.6761926,39.7769604 C1.48636,36.2524951 0.39146528,32.5828164 0.39146528,28.7679744 C0.39146528,24.9530893 1.48637439,21.2833889 3.67619979,17.7589237 C5.866018,14.2344297 8.98407087,11.123425 13.0303728,8.42592394 C17.0766459,5.72840133 21.7431494,3.64968503 27.0298688,2.18979664 C32.316581,0.729929814 37.82111,-2.23820962e-13 43.5434269,-2.23820962e-13 C49.2657006,-2.23820962e-13 54.770208,0.729929814 60.0569418,2.18979664 C65.343654,3.64968503 70.0101503,5.72840133 74.0564378,8.42592394 C78.1027038,11.123425 81.2207566,14.2344297 83.4105964,17.7589237 C85.6004362,21.2833889 86.6953885,24.9530893 86.6953885,28.7679744 Z" id="Stroke-100" stroke="#000000"></path>
            <text id="User-clicks-on-table" font-family="Helvetica" font-size="8" font-weight="normal" fill="#000000">
                <tspan x="17.6054688" y="21.261473">User clicks on </tspan>
                <tspan x="11.8164062" y="31.261473">table icon to view </tspan>
                <tspan x="12.4765625" y="41.261473">tabular fund data</tspan>
            </text>
        </g>
        <g id="Group-3" transform="translate(1004.000000, 291.000000)">
            <path d="M86.3039232,29.0294474 C86.3039232,32.8442893 85.2089709,36.5139681 83.0191312,40.0384333 C80.8292914,43.5628986 77.7112385,46.6739105 73.6649726,49.3714547 C69.618685,52.0689557 64.9521888,54.1476504 59.6654765,55.6075388 C54.3787427,57.0674272 48.8742353,57.7974218 43.1519616,57.7974218 C37.4296447,57.7974218 31.9251158,57.0674272 26.6384035,55.6075388 C21.3516841,54.1476504 16.6851806,52.0689557 12.6389075,49.3714547 C8.59260559,46.6739105 5.47455272,43.5628986 3.28472732,40.0384333 C1.09489472,36.5139681 4.26325641e-14,32.8442893 4.26325641e-14,29.0294474 C4.26325641e-14,25.2145622 1.09490911,21.5448619 3.28473451,18.0203967 C5.47455272,14.4959027 8.59260559,11.3848979 12.6389075,8.6873969 C16.6851806,5.98987429 21.3516841,3.91115799 26.6384035,2.4512696 C31.9251158,0.991402774 37.4296447,0.26147296 43.1519616,0.26147296 C48.8742353,0.26147296 54.3787427,0.991402774 59.6654765,2.4512696 C64.9521888,3.91115799 69.618685,5.98987429 73.6649726,8.6873969 C77.7112385,11.3848979 80.8292914,14.4959027 83.0191312,18.0203967 C85.2089709,21.5448619 86.3039232,25.2145622 86.3039232,29.0294474 Z" id="Fill-99" fill="#FFFFFF"></path>
            <path d="M86.6953885,28.7679744 C86.6953885,32.5828164 85.6004362,36.2524951 83.4105964,39.7769604 C81.2207566,43.3014256 78.1027038,46.4124375 74.0564378,49.1099817 C70.0101503,51.8074827 65.343654,53.8861775 60.0569418,55.3460659 C54.770208,56.8059543 49.2657006,57.5359488 43.5434269,57.5359488 C37.82111,57.5359488 32.316581,56.8059543 27.0298688,55.3460659 C21.7431494,53.8861775 17.0766459,51.8074827 13.0303728,49.1099817 C8.98407087,46.4124375 5.866018,43.3014256 3.6761926,39.7769604 C1.48636,36.2524951 0.39146528,32.5828164 0.39146528,28.7679744 C0.39146528,24.9530893 1.48637439,21.2833889 3.67619979,17.7589237 C5.866018,14.2344297 8.98407087,11.123425 13.0303728,8.42592394 C17.0766459,5.72840133 21.7431494,3.64968503 27.0298688,2.18979664 C32.316581,0.729929814 37.82111,-2.23820962e-13 43.5434269,-2.23820962e-13 C49.2657006,-2.23820962e-13 54.770208,0.729929814 60.0569418,2.18979664 C65.343654,3.64968503 70.0101503,5.72840133 74.0564378,8.42592394 C78.1027038,11.123425 81.2207566,14.2344297 83.4105964,17.7589237 C85.6004362,21.2833889 86.6953885,24.9530893 86.6953885,28.7679744 Z" id="Stroke-100" stroke="#000000"></path>
            <text id="User-scans-through-c" font-family="Helvetica" font-size="8" font-weight="normal" fill="#000000">
                <tspan x="23.9941406" y="17">User scans </tspan>
                <tspan x="20.4296875" y="27">through chart </tspan>
                <tspan x="13.09375" y="37">visual breakdown </tspan>
                <tspan x="29.9902344" y="47">of deals</tspan>
            </text>
        </g>
        <path id="Stroke-95" d="M1093.5,90.5 C1095.98528,90.5 1098,92.5147186 1098,95 C1098,97.4852814 1095.98528,99.5 1093.5,99.5 C1091.18397,99.5 1089.27659,97.7503421 1089.02754,95.5007074 L308.972457,95.5007074 C308.723414,97.7503421 306.816034,99.5 304.5,99.5 C302.014719,99.5 300,97.4852814 300,95 C300,92.5147186 302.014719,90.5 304.5,90.5 C306.816379,90.5 308.723981,92.2501788 308.972568,94.500297 L1089.02743,94.500297 C1089.27602,92.2501788 1091.18362,90.5 1093.5,90.5 Z M304.5,91.5 C302.567003,91.5 301,93.0670034 301,95 C301,96.9329966 302.567003,98.5 304.5,98.5 C306.432997,98.5 308,96.9329966 308,95 C308,93.0670034 306.432997,91.5 304.5,91.5 Z" fill="#3379B2" fill-rule="nonzero"></path>
        <text id="MY-PORTFOLIO-&gt;-FUNDS" font-family="Lato-Bold, Lato" font-size="11" font-weight="bold" fill="#333333">
            <tspan x="576.45" y="600">MY PORTFOLIO &gt; FUNDS EXPOSURE</tspan>
        </text>
        <text id="MY-PORTFOLIO-&gt;-DEALS" font-family="Lato-Bold, Lato" font-size="11" font-weight="bold" fill="#333333">
            <tspan x="866.303" y="268">MY PORTFOLIO &gt; DEALS EXPOSURE</tspan>
        </text>
        <g id="Group-3" transform="translate(1141.000000, 291.000000)">
            <path d="M86.3039232,28.7679744 C86.3039232,32.5828164 85.2089709,36.2524951 83.0191312,39.7769604 C80.8292914,43.3014256 77.7112385,46.4124375 73.6649726,49.1099817 C69.618685,51.8074827 64.9521888,53.8861775 59.6654765,55.3460659 C54.3787427,56.8059543 48.8742353,57.5359488 43.1519616,57.5359488 C37.4296447,57.5359488 31.9251158,56.8059543 26.6384035,55.3460659 C21.3516841,53.8861775 16.6851806,51.8074827 12.6389075,49.1099817 C8.59260559,46.4124375 5.47455272,43.3014256 3.28472732,39.7769604 C1.09489472,36.2524951 0,32.5828164 0,28.7679744 C0,24.9530893 1.09490911,21.2833889 3.28473451,17.7589237 C5.47455272,14.2344297 8.59260559,11.123425 12.6389075,8.42592394 C16.6851806,5.72840133 21.3516841,3.64968503 26.6384035,2.18979664 C31.9251158,0.729929814 37.4296447,0 43.1519616,0 C48.8742353,0 54.3787427,0.729929814 59.6654765,2.18979664 C64.9521888,3.64968503 69.618685,5.72840133 73.6649726,8.42592394 C77.7112385,11.123425 80.8292914,14.2344297 83.0191312,17.7589237 C85.2089709,21.2833889 86.3039232,24.9530893 86.3039232,28.7679744 Z" id="Fill-99" fill="#FFFFFF"></path>
            <path d="M86.6953885,28.7679744 C86.6953885,32.5828164 85.6004362,36.2524951 83.4105964,39.7769604 C81.2207566,43.3014256 78.1027038,46.4124375 74.0564378,49.1099817 C70.0101503,51.8074827 65.343654,53.8861775 60.0569418,55.3460659 C54.770208,56.8059543 49.2657006,57.5359488 43.5434269,57.5359488 C37.82111,57.5359488 32.316581,56.8059543 27.0298688,55.3460659 C21.7431494,53.8861775 17.0766459,51.8074827 13.0303728,49.1099817 C8.98407087,46.4124375 5.866018,43.3014256 3.6761926,39.7769604 C1.48636,36.2524951 0.39146528,32.5828164 0.39146528,28.7679744 C0.39146528,24.9530893 1.48637439,21.2833889 3.67619979,17.7589237 C5.866018,14.2344297 8.98407087,11.123425 13.0303728,8.42592394 C17.0766459,5.72840133 21.7431494,3.64968503 27.0298688,2.18979664 C32.316581,0.729929814 37.82111,-2.23820962e-13 43.5434269,-2.23820962e-13 C49.2657006,-2.23820962e-13 54.770208,0.729929814 60.0569418,2.18979664 C65.343654,3.64968503 70.0101503,5.72840133 74.0564378,8.42592394 C78.1027038,11.123425 81.2207566,14.2344297 83.4105964,17.7589237 C85.6004362,21.2833889 86.6953885,24.9530893 86.6953885,28.7679744 Z" id="Stroke-100" stroke="#000000"></path>
            <text id="User-utilizes-top-fi" font-family="Helvetica" font-size="8" font-weight="normal" fill="#000000">
                <tspan x="14.0449219" y="22">User utilizes top </tspan>
                <tspan x="15.1582031" y="32">filters to narrow </tspan>
                <tspan x="22.0410156" y="42">down funds</tspan>
            </text>
        </g>
        <g id="Group" transform="translate(1436.000000, 311.000000)">
            <g id="Group-610" fill="#F8CECC" stroke="#B85450">
                <polygon id="Fill-607" points="0.231752312 0.852173313 70.2317523 0.852173313 70.2317523 20.8521733 0.231752312 20.8521733"></polygon>
            </g>
            <text id="end-of-journey" font-family="Helvetica" font-size="8.6310396" font-weight="normal" fill="#000000">
                <tspan x="8" y="14">end of journey</tspan>
            </text>
        </g>
        <g id="Group-3" transform="translate(1278.000000, 291.000000)">
            <path d="M86.3039232,29.0294474 C86.3039232,32.8442893 85.2089709,36.5139681 83.0191312,40.0384333 C80.8292914,43.5628986 77.7112385,46.6739105 73.6649726,49.3714547 C69.618685,52.0689557 64.9521888,54.1476504 59.6654765,55.6075388 C54.3787427,57.0674272 48.8742353,57.7974218 43.1519616,57.7974218 C37.4296447,57.7974218 31.9251158,57.0674272 26.6384035,55.6075388 C21.3516841,54.1476504 16.6851806,52.0689557 12.6389075,49.3714547 C8.59260559,46.6739105 5.47455272,43.5628986 3.28472732,40.0384333 C1.09489472,36.5139681 4.26325641e-14,32.8442893 4.26325641e-14,29.0294474 C4.26325641e-14,25.2145622 1.09490911,21.5448619 3.28473451,18.0203967 C5.47455272,14.4959027 8.59260559,11.3848979 12.6389075,8.6873969 C16.6851806,5.98987429 21.3516841,3.91115799 26.6384035,2.4512696 C31.9251158,0.991402774 37.4296447,0.26147296 43.1519616,0.26147296 C48.8742353,0.26147296 54.3787427,0.991402774 59.6654765,2.4512696 C64.9521888,3.91115799 69.618685,5.98987429 73.6649726,8.6873969 C77.7112385,11.3848979 80.8292914,14.4959027 83.0191312,18.0203967 C85.2089709,21.5448619 86.3039232,25.2145622 86.3039232,29.0294474 Z" id="Fill-99" fill="#FFFFFF"></path>
            <path d="M86.6953885,28.7679744 C86.6953885,32.5828164 85.6004362,36.2524951 83.4105964,39.7769604 C81.2207566,43.3014256 78.1027038,46.4124375 74.0564378,49.1099817 C70.0101503,51.8074827 65.343654,53.8861775 60.0569418,55.3460659 C54.770208,56.8059543 49.2657006,57.5359488 43.5434269,57.5359488 C37.82111,57.5359488 32.316581,56.8059543 27.0298688,55.3460659 C21.7431494,53.8861775 17.0766459,51.8074827 13.0303728,49.1099817 C8.98407087,46.4124375 5.866018,43.3014256 3.6761926,39.7769604 C1.48636,36.2524951 0.39146528,32.5828164 0.39146528,28.7679744 C0.39146528,24.9530893 1.48637439,21.2833889 3.67619979,17.7589237 C5.866018,14.2344297 8.98407087,11.123425 13.0303728,8.42592394 C17.0766459,5.72840133 21.7431494,3.64968503 27.0298688,2.18979664 C32.316581,0.729929814 37.82111,-2.23820962e-13 43.5434269,-2.23820962e-13 C49.2657006,-2.23820962e-13 54.770208,0.729929814 60.0569418,2.18979664 C65.343654,3.64968503 70.0101503,5.72840133 74.0564378,8.42592394 C78.1027038,11.123425 81.2207566,14.2344297 83.4105964,17.7589237 C85.6004362,21.2833889 86.6953885,24.9530893 86.6953885,28.7679744 Z" id="Stroke-100" stroke="#000000"></path>
            <text id="User-clicks-on-table" font-family="Helvetica" font-size="8" font-weight="normal" fill="#000000">
                <tspan x="17.6054688" y="21.261473">User clicks on </tspan>
                <tspan x="11.8164062" y="31.261473">table icon to view </tspan>
                <tspan x="12.4765625" y="41.261473">tabular fund data</tspan>
            </text>
        </g>
        <path id="Stroke-95" d="M1269.5,317 L1278.5,321.5 L1269.5,326 L1269.5,322 L1228,322 L1228,321 L1269.5,321 L1269.5,317 Z" fill="#000000" fill-rule="nonzero"></path>
        <path id="Stroke-95" d="M1426.5,317 L1435.5,321.5 L1426.5,326 L1426.5,322 L1365,322 L1365,321 L1426.5,321 L1426.5,317 Z" fill="#000000" fill-rule="nonzero"></path>
        <path id="Stroke-95" d="M995.5,315 L1004.5,319.5 L995.5,324 L995.5,320 L954,320 L954,319 L995.5,319 L995.5,315 Z" fill="#000000" fill-rule="nonzero"></path>
        <path id="Stroke-95" d="M1132.5,317 L1141.5,321.5 L1132.5,326 L1132.5,322 L1091,322 L1091,321 L1132.5,321 L1132.5,317 Z" fill="#000000" fill-rule="nonzero"></path>
        <path id="Stroke-95" d="M1504,272 C1506.48528,272 1508.5,274.014719 1508.5,276.5 C1508.5,278.985281 1506.48528,281 1504,281 C1501.68397,281 1499.77659,279.250342 1499.52754,277.000707 L875.472457,277.000707 C875.223414,279.250342 873.316034,281 871,281 C868.514719,281 866.5,278.985281 866.5,276.5 C866.5,274.014719 868.514719,272 871,272 C873.316379,272 875.223981,273.750179 875.472568,276.000297 L1499.52743,276.000297 C1499.77602,273.750179 1501.68362,272 1504,272 Z M871,273 C869.067003,273 867.5,274.567003 867.5,276.5 C867.5,278.432997 869.067003,280 871,280 C872.932997,280 874.5,278.432997 874.5,276.5 C874.5,274.567003 872.932997,273 871,273 Z" fill="#3379B2" fill-rule="nonzero"></path>
        <path id="Stroke-95" d="M1209,609 C1211.48528,609 1213.5,611.014719 1213.5,613.5 C1213.5,615.985281 1211.48528,618 1209,618 C1206.68397,618 1204.77659,616.250342 1204.52754,614.000707 L585.472457,614.000707 C585.223414,616.250342 583.316034,618 581,618 C578.514719,618 576.5,615.985281 576.5,613.5 C576.5,611.014719 578.514719,609 581,609 C583.316379,609 585.223981,610.750179 585.472568,613.000297 L1204.52743,613.000297 C1204.77602,610.750179 1206.68362,609 1209,609 Z M581,610 C579.067003,610 577.5,611.567003 577.5,613.5 C577.5,615.432997 579.067003,617 581,617 C582.932997,617 584.5,615.432997 584.5,613.5 C584.5,611.567003 582.932997,610 581,610 Z" fill="#3379B2" fill-rule="nonzero"></path>
        <path id="Stroke-95" d="M702.5,656 L711.5,660.5 L702.5,665 L702.5,661 L661,661 L661,660 L702.5,660 L702.5,656 Z" fill="#000000" fill-rule="nonzero"></path>
        <path id="Stroke-95" d="M839.5,656 L848.5,660.5 L839.5,665 L839.5,661 L798,661 L798,660 L839.5,660 L839.5,656 Z" fill="#000000" fill-rule="nonzero"></path>
        <path id="Stroke-95" d="M976.5,656 L985.5,660.5 L976.5,665 L976.5,661 L935,661 L935,660 L976.5,660 L976.5,656 Z" fill="#000000" fill-rule="nonzero"></path>
        <path id="Stroke-95" d="M1133.5,656 L1142.5,660.5 L1133.5,665 L1133.5,661 L1072,661 L1072,660 L1133.5,660 L1133.5,656 Z" fill="#000000" fill-rule="nonzero"></path>
    </g>
</svg>