<?xml version="1.0" encoding="UTF-8"?>
<svg width="1046px" height="675px" viewBox="0 0 1046 675" version="1.1" xmlns="http://www.w3.org/2000/svg" xmlns:xlink="http://www.w3.org/1999/xlink">
    <!-- Generator: Sketch 59.1 (86144) - https://sketch.com -->
    <title>New User Workflow</title>
    <desc>Created with Sketch.</desc>
    <defs>
        <rect id="path-1" x="0" y="0" width="159" height="84" rx="5"></rect>
        <mask id="mask-2" maskContentUnits="userSpaceOnUse" maskUnits="objectBoundingBox" x="0" y="0" width="159" height="84" fill="white">
            <use xlink:href="#path-1"></use>
        </mask>
        <rect id="path-3" x="10" y="10" width="159" height="84" rx="5"></rect>
        <mask id="mask-4" maskContentUnits="userSpaceOnUse" maskUnits="objectBoundingBox" x="0" y="0" width="159" height="84" fill="white">
            <use xlink:href="#path-3"></use>
        </mask>
    </defs>
    <g id="New-User-Workflow" stroke="none" stroke-width="1" fill="none" fill-rule="evenodd" transform="translate(0.000000, 0.000000)">
        <g id="Group-4" transform="translate(40.000000, 40.000000)">
            <g id="Group-2" transform="translate(550.000000, 109.000000)">
                <use id="Rectangle" stroke="#929292" mask="url(#mask-2)" stroke-width="4" fill="#FFFFFF" stroke-dasharray="4" xlink:href="#path-1"></use>
                <use id="Rectangle" stroke="#929292" mask="url(#mask-4)" stroke-width="4" fill="#FFFFFF" stroke-dasharray="4" xlink:href="#path-3"></use>
                <g id="Dashboard" transform="translate(20.000000, 20.000000)">
                    <rect id="Rectangle" stroke="#333333" stroke-width="2" fill="#FFFFFF" x="1" y="1" width="157" height="82" rx="5"></rect>
                    <text id="Select-Fund(s)-via-t" font-family="Lato-Bold, Lato" font-size="14" font-weight="bold" fill="#000000">
                        <tspan x="25.18" y="39">Select Fund(s) via </tspan>
                        <tspan x="25.3375" y="56">table checkboxes</tspan>
                    </text>
                </g>
            </g>
            <g id="Dashboard" transform="translate(10.000000, 0.000000)">
                <rect id="Rectangle" stroke="#000000" stroke-width="2" fill="#000000" x="1" y="1" width="157" height="68" rx="34"></rect>
                <g id="Group-5" transform="translate(41.000000, 16.000000)" fill="#FFFFFF" font-family="Lato-Bold, Lato" font-weight="bold">
                    <text id="Start" font-size="18">
                        <tspan x="18.3175" y="18">Start</tspan>
                    </text>
                    <text id="(Dashboard)" font-size="14">
                        <tspan x="0.381" y="35">(Dashboard)</tspan>
                    </text>
                </g>
            </g>
            <g id="Dashboard" transform="translate(806.000000, 518.000000)">
                <rect id="Rectangle" stroke="#000000" stroke-width="2" fill="#000000" x="1" y="1" width="157" height="68" rx="34"></rect>
                <text id="End" font-family="Lato-Bold, Lato" font-size="18" font-weight="bold" fill="#FFFFFF">
                    <tspan x="64.101" y="42">End</tspan>
                </text>
            </g>
            <g id="Dashboard" transform="translate(10.000000, 120.000000)">
                <rect id="Rectangle" stroke="#333333" stroke-width="2" fill="#FFFFFF" x="1" y="1" width="157" height="82" rx="5"></rect>
                <text id="Private-Capital-Benc" font-family="Lato-Bold, Lato" font-size="14" font-weight="bold" fill="#000000">
                    <tspan x="33.184" y="39">Private Capital</tspan>
                    <tspan x="41.0625" y="56">Benchmarks</tspan>
                </text>
            </g>
            <g id="Dashboard" transform="translate(0.000000, 249.000000)">
                <rect id="Rectangle" stroke="#333333" stroke-width="2" fill="#FFFFFF" x="1" y="1" width="157" height="82" rx="5"></rect>
                <rect id="Rectangle" stroke="#333333" stroke-width="2" fill="#FFFFFF" x="11" y="11" width="157" height="82" rx="5"></rect>
                <rect id="Rectangle" stroke="#333333" stroke-width="2" fill="#FFFFFF" x="21" y="21" width="157" height="82" rx="5"></rect>
                <text id="List-of-PCBenchmarks" font-family="Lato-Bold, Lato" font-size="14" font-weight="bold" fill="#000000">
                    <tspan x="80.432" y="59">List of </tspan>
                    <tspan x="51.494" y="76">PCBenchmarks</tspan>
                </text>
            </g>
            <g id="BLOCK-question" transform="translate(290.000000, 257.000000)" fill="#FFFFFF" stroke="#333333" stroke-width="2">
                <path d="M21.9954077,0.0102001084 L39.0057407,84.7762823 C39.1431137,85.4608406 39.8872423,86.2066937 40.5722932,86.3456826 L124.327849,103.338712 C126.335386,103.746018 127.468284,102.614243 127.063225,100.606373 L110.180501,16.9190271 C109.931425,15.6843621 108.661553,14.4113263 107.432249,14.1605927 L24.7327752,-2.70711977 C22.7267645,-3.11627367 21.5939747,-1.99022525 21.9954077,0.0102001084 Z" id="Rectangle" transform="translate(74.533009, 50.313708) rotate(-45.000000) translate(-74.533009, -50.313708) "></path>
            </g>
            <text id="Want-to-plot-funds-t" font-family="Lato-Bold, Lato" font-size="14" font-weight="bold" fill="#000000">
                <tspan x="325.887" y="304">Want to plot </tspan>
                <tspan x="324.634" y="321">funds to BM?</tspan>
            </text>
            <g id="Group" transform="translate(560.000000, 410.000000)" fill="#000000" font-family="Lato-Bold, Lato" font-size="13" font-weight="bold">
                <text id="Does-fund-have-suffi">
                    <tspan x="6.1865" y="13">Does fund have sufficient </tspan>
                    <tspan x="43.373" y="29">data to plot?</tspan>
                </text>
            </g>
            <g id="Dashboard" transform="translate(285.000000, 120.000000)">
                <rect id="Rectangle" stroke="#333333" stroke-width="2" fill="#FFFFFF" x="1" y="1" width="157" height="82" rx="5"></rect>
                <text id="2019---Buyout---Nort" font-family="Lato-Bold, Lato" font-size="14" font-weight="bold" fill="#000000">
                    <tspan x="11.068" y="39">2019 - Buyout - North </tspan>
                    <tspan x="15.905" y="56">America Benchmark</tspan>
                </text>
                <rect id="Rectangle" stroke="#333333" stroke-width="2" fill="#FFFFFF" x="1" y="1" width="157" height="82" rx="5"></rect>
                <text id="2019---Buyout---Nort" font-family="Lato-Bold, Lato" font-size="14" font-weight="bold" fill="#000000">
                    <tspan x="11.068" y="39">2019 - Buyout - North </tspan>
                    <tspan x="15.905" y="56">America Benchmark</tspan>
                </text>
            </g>
            <g id="Dashboard" transform="translate(560.000000, 257.000000)">
                <rect id="Rectangle" stroke="#333333" stroke-width="2" fill="#FFFFFF" x="1" y="1" width="157" height="82" rx="5"></rect>
                <text id="Select-‘Add-to-Quart" font-family="Lato-Bold, Lato" font-size="14" font-weight="bold" fill="#000000">
                    <tspan x="60.3165" y="31">Select</tspan>
                    <tspan x="29.24" y="48">‘Add to Quartile </tspan>
                    <tspan x="37.3215" y="65">Chart’ button</tspan>
                </text>
            </g>
            <g id="Dashboard" transform="translate(806.000000, 371.000000)">
                <rect id="Rectangle" stroke="#333333" stroke-width="2" fill="#FFFFFF" x="1" y="1" width="157" height="82" rx="5"></rect>
                <text id="Fund-successfully-pl" font-family="Lato-Bold, Lato" font-size="14" font-weight="bold" fill="#000000">
                    <tspan x="24.732" y="31">Fund successfully </tspan>
                    <tspan x="48.476" y="48">plotted to </tspan>
                    <tspan x="44.192" y="65">benchmark</tspan>
                </text>
            </g>
            <g id="Dashboard" transform="translate(560.000000, 511.000000)">
                <rect id="Rectangle" stroke="#333333" stroke-width="2" fill="#FFFFFF" x="1" y="1" width="157" height="82" rx="5"></rect>
                <text id="Show-error-state-abo" font-family="Lato-Bold, Lato" font-size="14" font-weight="bold" fill="#000000">
                    <tspan x="27.364" y="31">Show error state </tspan>
                    <tspan x="24.585" y="48">about insufficient </tspan>
                    <tspan x="65.472" y="65">data</tspan>
                </text>
            </g>
            <g id="Answer-NO" transform="translate(340.000000, 410.000000)" stroke="#D79196" stroke-width="2">
                <circle id="Oval-Copy" fill="#FFFFFF" fill-rule="evenodd" cx="25" cy="25" r="25"></circle>
                <line x1="31.6841913" y1="32.0154726" x2="18.0981161" y2="18.0732233" id="Line" stroke-linecap="square"></line>
                <line x1="31.5483306" y1="18.130974" x2="17.9622553" y2="32.0732233" id="Line-Copy" stroke-linecap="square"></line>
            </g>
            <text id="No" font-family="Lato-Bold, Lato" font-size="14" font-weight="bold" fill="#000000">
                <tspan x="376.2285" y="387">No</tspan>
            </text>
            <text id="Endpoint" font-family="Lato-Bold, Lato" font-size="14" font-weight="bold" fill="#000000">
                <tspan x="336.4995" y="478">Endpoint</tspan>
            </text>
            <g id="Group-3" transform="translate(650.000000, 468.000000)">
                <text id="No" font-family="Lato-Bold, Lato" font-size="14" font-weight="bold" fill="#000000">
                    <tspan x="0.2285" y="14">No</tspan>
                </text>
                <g id="1-s" transform="translate(79.000000, 79.000000)">
                    <g id="arrow" transform="translate(6.439024, 0.000000)">
                        <line x1="0" y1="4" x2="51.6766688" y2="4" id="Path-4" stroke="#F44336" stroke-width="2" stroke-linecap="round" stroke-linejoin="round"></line>
                        <path d="M52.2839584,0.0267138211 L59.3355726,3.54023466 C59.5827338,3.66338465 59.6832648,3.96358124 59.5601148,4.2107425 C59.5118679,4.30757387 59.4335158,4.38614465 59.3368193,4.43466139 L52.2852052,7.97275577 C52.0383882,8.09659433 51.7379125,7.99690063 51.6140739,7.75008365 C51.5791579,7.68049402 51.5609756,7.60371196 51.5609756,7.52585409 L51.5609756,0.474238877 C51.5609756,0.198096502 51.7848332,-0.0257611235 52.0609756,-0.0257611235 C52.1383625,-0.0257611235 52.2146932,-0.00779808728 52.2839584,0.0267138211 Z" id="Rectangle-2" fill="#4A4A4A"></path>
                    </g>
                </g>
            </g>
            <g id="Group-3" transform="translate(729.000000, 414.000000)">
                <text id="Yes" font-family="Lato-Bold, Lato" font-size="14" font-weight="bold" fill="#000000">
                    <tspan x="22.118" y="22">Yes</tspan>
                </text>
                <g id="1-s">
                    <g id="arrow" transform="translate(6.439024, 0.000000)">
                        <line x1="0" y1="4" x2="51.6766688" y2="4" id="Path-4" stroke="#F44336" stroke-width="2" stroke-linecap="round" stroke-linejoin="round"></line>
                        <path d="M52.2839584,0.0267138211 L59.3355726,3.54023466 C59.5827338,3.66338465 59.6832648,3.96358124 59.5601148,4.2107425 C59.5118679,4.30757387 59.4335158,4.38614465 59.3368193,4.43466139 L52.2852052,7.97275577 C52.0383882,8.09659433 51.7379125,7.99690063 51.6140739,7.75008365 C51.5791579,7.68049402 51.5609756,7.60371196 51.5609756,7.52585409 L51.5609756,0.474238877 C51.5609756,0.198096502 51.7848332,-0.0257611235 52.0609756,-0.0257611235 C52.1383625,-0.0257611235 52.2146932,-0.00779808728 52.2839584,0.0267138211 Z" id="Rectangle-2" fill="#4A4A4A"></path>
                    </g>
                </g>
            </g>
            <text id="Yes" font-family="Lato-Bold, Lato" font-size="14" font-weight="bold" fill="#000000">
                <tspan x="505.118" y="227">Yes</tspan>
            </text>
            <g id="curve-copy-2" transform="translate(454.000000, 156.000000)">
                <g id="Arrow" transform="translate(0.761905, 0.000000)">
                    <path d="M0,153.083321 L28,153.083321 C34.627417,153.083321 40,147.710738 40,141.083321 L40,16 C40,9.372583 45.372583,4 52,4 L79.6446391,4 L79.6446391,4" id="Path-2" stroke="#F44336" stroke-width="2" stroke-linecap="round" stroke-linejoin="round"></path>
                    <path d="M77.0681537,0.0602466273 L83.9199247,3.47419418 C84.2036912,3.61558301 84.3191111,3.96023951 84.1777223,4.24400601 C84.1223298,4.35517836 84.0323736,4.44538567 83.9213561,4.50108786 L77.0695851,7.93891254 C76.7862139,8.08109193 76.441237,7.96663333 76.2990576,7.6832621 C76.2589703,7.60336606 76.2380952,7.51521238 76.2380952,7.42582355 L76.2380952,0.574051323 C76.2380952,0.257011533 76.4951068,1.79264809e-09 76.8121466,1.79264803e-09 C76.9009947,1.79264801e-09 76.9886302,0.0206234122 77.0681537,0.0602466273 Z" id="Rectangle-2" fill="#4A4A4A"></path>
                </g>
            </g>
            <g id="curve-copy-2" transform="translate(179.000000, 156.000000)">
                <g id="Arrow" transform="translate(0.761905, 0.000000)">
                    <path d="M0,276.083321 L38,276.083321 C44.627417,276.083321 50,270.710738 50,264.083321 L50,16 C50,9.372583 55.372583,4 62,4 L86.6446391,4 L86.6446391,4" id="Path-2" stroke="#F44336" stroke-width="2" stroke-linecap="round" stroke-linejoin="round"></path>
                    <path d="M87.0681537,0.0602466273 L93.9199247,3.47419418 C94.2036912,3.61558301 94.3191111,3.96023951 94.1777223,4.24400601 C94.1223298,4.35517836 94.0323736,4.44538567 93.9213561,4.50108786 L87.0695851,7.93891254 C86.7862139,8.08109193 86.441237,7.96663333 86.2990576,7.6832621 C86.2589703,7.60336606 86.2380952,7.51521238 86.2380952,7.42582355 L86.2380952,0.574051323 C86.2380952,0.257011533 86.4951068,1.79264809e-09 86.8121466,1.79264803e-09 C86.9009947,1.79264801e-09 86.9886302,0.0206234122 87.0681537,0.0602466273 Z" id="Rectangle-2" fill="#4A4A4A"></path>
                </g>
            </g>
            <g id="1-s" transform="translate(891.000000, 487.000000) scale(-1, 1) rotate(90.000000) translate(-891.000000, -487.000000) translate(866.000000, 483.000000)">
                <g id="arrow" transform="translate(4.878049, 0.000000)">
                    <line x1="0" y1="4" x2="39.1489915" y2="4" id="Path-4" stroke="#F44336" stroke-width="2" stroke-linecap="round" stroke-linejoin="round"></line>
                    <path d="M37.844934,0.0267138211 L44.8965482,3.54023466 C45.1437095,3.66338465 45.2442405,3.96358124 45.1210905,4.2107425 C45.0728435,4.30757387 44.9944914,4.38614465 44.897795,4.43466139 L37.8461808,7.97275577 C37.5993638,8.09659433 37.2988881,7.99690063 37.1750495,7.75008365 C37.1401335,7.68049402 37.1219512,7.60371196 37.1219512,7.52585409 L37.1219512,0.474238877 C37.1219512,0.198096502 37.3458088,-0.0257611235 37.6219512,-0.0257611235 C37.6993382,-0.0257611235 37.7756688,-0.00779808728 37.844934,0.0267138211 Z" id="Rectangle-2" fill="#4A4A4A"></path>
                </g>
            </g>
            <g id="1-s" transform="translate(639.000000, 477.000000) scale(-1, 1) rotate(90.000000) translate(-639.000000, -477.000000) translate(614.000000, 473.000000)">
                <g id="arrow" transform="translate(4.878049, 0.000000)">
                    <line x1="0" y1="4" x2="39.1489915" y2="4" id="Path-4" stroke="#F44336" stroke-width="2" stroke-linecap="round" stroke-linejoin="round"></line>
                    <path d="M37.844934,0.0267138211 L44.8965482,3.54023466 C45.1437095,3.66338465 45.2442405,3.96358124 45.1210905,4.2107425 C45.0728435,4.30757387 44.9944914,4.38614465 44.897795,4.43466139 L37.8461808,7.97275577 C37.5993638,8.09659433 37.2988881,7.99690063 37.1750495,7.75008365 C37.1401335,7.68049402 37.1219512,7.60371196 37.1219512,7.52585409 L37.1219512,0.474238877 C37.1219512,0.198096502 37.3458088,-0.0257611235 37.6219512,-0.0257611235 C37.6993382,-0.0257611235 37.7756688,-0.00779808728 37.844934,0.0267138211 Z" id="Rectangle-2" fill="#4A4A4A"></path>
                </g>
            </g>
            <g id="1-s" transform="translate(639.000000, 376.000000) scale(-1, 1) rotate(90.000000) translate(-639.000000, -376.000000) translate(614.000000, 372.000000)">
                <g id="arrow" transform="translate(4.878049, 0.000000)">
                    <line x1="0" y1="4" x2="39.1489915" y2="4" id="Path-4" stroke="#F44336" stroke-width="2" stroke-linecap="round" stroke-linejoin="round"></line>
                    <path d="M37.844934,0.0267138211 L44.8965482,3.54023466 C45.1437095,3.66338465 45.2442405,3.96358124 45.1210905,4.2107425 C45.0728435,4.30757387 44.9944914,4.38614465 44.897795,4.43466139 L37.8461808,7.97275577 C37.5993638,8.09659433 37.2988881,7.99690063 37.1750495,7.75008365 C37.1401335,7.68049402 37.1219512,7.60371196 37.1219512,7.52585409 L37.1219512,0.474238877 C37.1219512,0.198096502 37.3458088,-0.0257611235 37.6219512,-0.0257611235 C37.6993382,-0.0257611235 37.7756688,-0.00779808728 37.844934,0.0267138211 Z" id="Rectangle-2" fill="#4A4A4A"></path>
                </g>
            </g>
            <g id="1-s" transform="translate(639.000000, 235.000000) scale(-1, 1) rotate(90.000000) translate(-639.000000, -235.000000) translate(623.000000, 231.000000)">
                <g id="arrow" transform="translate(3.121951, 0.000000)">
                    <line x1="0" y1="4" x2="25.0553546" y2="4" id="Path-4" stroke="#F44336" stroke-width="2" stroke-linecap="round" stroke-linejoin="round"></line>
                    <path d="M21.6010316,0.0267138211 L28.6526458,3.54023466 C28.899807,3.66338465 29.000338,3.96358124 28.877188,4.2107425 C28.828941,4.30757387 28.750589,4.38614465 28.6538925,4.43466139 L21.6022783,7.97275577 C21.3554614,8.09659433 21.0549857,7.99690063 20.9311471,7.75008365 C20.896231,7.68049402 20.8780488,7.60371196 20.8780488,7.52585409 L20.8780488,0.474238877 C20.8780488,0.198096502 21.1019064,-0.0257611235 21.3780488,-0.0257611235 C21.4554357,-0.0257611235 21.5317664,-0.00779808728 21.6010316,0.0267138211 Z" id="Rectangle-2" fill="#4A4A4A"></path>
                </g>
            </g>
            <g id="1-s" transform="translate(365.000000, 229.000000) scale(-1, 1) rotate(90.000000) translate(-365.000000, -229.000000) translate(345.000000, 225.000000)">
                <g id="arrow" transform="translate(3.902439, 0.000000)">
                    <line x1="0" y1="4" x2="31.3191932" y2="4" id="Path-4" stroke="#F44336" stroke-width="2" stroke-linecap="round" stroke-linejoin="round"></line>
                    <path d="M28.8205438,0.0267138211 L35.8721579,3.54023466 C36.1193192,3.66338465 36.2198502,3.96358124 36.0967002,4.2107425 C36.0484532,4.30757387 35.9701012,4.38614465 35.8734047,4.43466139 L28.8217905,7.97275577 C28.5749736,8.09659433 28.2744979,7.99690063 28.1506593,7.75008365 C28.1157432,7.68049402 28.097561,7.60371196 28.097561,7.52585409 L28.097561,0.474238877 C28.097561,0.198096502 28.3214186,-0.0257611235 28.597561,-0.0257611235 C28.6749479,-0.0257611235 28.7512786,-0.00779808728 28.8205438,0.0267138211 Z" id="Rectangle-2" fill="#4A4A4A"></path>
                </g>
            </g>
            <g id="1-s" transform="translate(365.000000, 381.000000) scale(-1, 1) rotate(90.000000) translate(-365.000000, -381.000000) translate(345.000000, 377.000000)">
                <g id="arrow" transform="translate(3.902439, 0.000000)">
                    <line x1="0" y1="4" x2="31.3191932" y2="4" id="Path-4" stroke="#F44336" stroke-width="2" stroke-linecap="round" stroke-linejoin="round"></line>
                    <path d="M28.8205438,0.0267138211 L35.8721579,3.54023466 C36.1193192,3.66338465 36.2198502,3.96358124 36.0967002,4.2107425 C36.0484532,4.30757387 35.9701012,4.38614465 35.8734047,4.43466139 L28.8217905,7.97275577 C28.5749736,8.09659433 28.2744979,7.99690063 28.1506593,7.75008365 C28.1157432,7.68049402 28.097561,7.60371196 28.097561,7.52585409 L28.097561,0.474238877 C28.097561,0.198096502 28.3214186,-0.0257611235 28.597561,-0.0257611235 C28.6749479,-0.0257611235 28.7512786,-0.00779808728 28.8205438,0.0267138211 Z" id="Rectangle-2" fill="#4A4A4A"></path>
                </g>
            </g>
            <g id="1-s" transform="translate(90.000000, 97.000000) scale(-1, 1) rotate(90.000000) translate(-90.000000, -97.000000) translate(74.000000, 93.000000)">
                <g id="arrow" transform="translate(3.121951, 0.000000)">
                    <line x1="0" y1="4" x2="25.0553546" y2="4" id="Path-4" stroke="#F44336" stroke-width="2" stroke-linecap="round" stroke-linejoin="round"></line>
                    <path d="M21.6010316,0.0267138211 L28.6526458,3.54023466 C28.899807,3.66338465 29.000338,3.96358124 28.877188,4.2107425 C28.828941,4.30757387 28.750589,4.38614465 28.6538925,4.43466139 L21.6022783,7.97275577 C21.3554614,8.09659433 21.0549857,7.99690063 20.9311471,7.75008365 C20.896231,7.68049402 20.8780488,7.60371196 20.8780488,7.52585409 L20.8780488,0.474238877 C20.8780488,0.198096502 21.1019064,-0.0257611235 21.3780488,-0.0257611235 C21.4554357,-0.0257611235 21.5317664,-0.00779808728 21.6010316,0.0267138211 Z" id="Rectangle-2" fill="#4A4A4A"></path>
                </g>
            </g>
            <g id="1-s" transform="translate(90.000000, 226.000000) scale(-1, 1) rotate(90.000000) translate(-90.000000, -226.000000) translate(74.000000, 222.000000)">
                <g id="arrow" transform="translate(3.121951, 0.000000)">
                    <line x1="0" y1="4" x2="25.0553546" y2="4" id="Path-4" stroke="#F44336" stroke-width="2" stroke-linecap="round" stroke-linejoin="round"></line>
                    <path d="M21.6010316,0.0267138211 L28.6526458,3.54023466 C28.899807,3.66338465 29.000338,3.96358124 28.877188,4.2107425 C28.828941,4.30757387 28.750589,4.38614465 28.6538925,4.43466139 L21.6022783,7.97275577 C21.3554614,8.09659433 21.0549857,7.99690063 20.9311471,7.75008365 C20.896231,7.68049402 20.8780488,7.60371196 20.8780488,7.52585409 L20.8780488,0.474238877 C20.8780488,0.198096502 21.1019064,-0.0257611235 21.3780488,-0.0257611235 C21.4554357,-0.0257611235 21.5317664,-0.00779808728 21.6010316,0.0267138211 Z" id="Rectangle-2" fill="#4A4A4A"></path>
                </g>
            </g>
            <g id="1-s" transform="translate(90.000000, 375.000000) scale(-1, 1) rotate(90.000000) translate(-90.000000, -375.000000) translate(74.000000, 371.000000)">
                <g id="arrow" transform="translate(3.121951, 0.000000)">
                    <line x1="0" y1="4" x2="25.0553546" y2="4" id="Path-4" stroke="#F44336" stroke-width="2" stroke-linecap="round" stroke-linejoin="round"></line>
                    <path d="M21.6010316,0.0267138211 L28.6526458,3.54023466 C28.899807,3.66338465 29.000338,3.96358124 28.877188,4.2107425 C28.828941,4.30757387 28.750589,4.38614465 28.6538925,4.43466139 L21.6022783,7.97275577 C21.3554614,8.09659433 21.0549857,7.99690063 20.9311471,7.75008365 C20.896231,7.68049402 20.8780488,7.60371196 20.8780488,7.52585409 L20.8780488,0.474238877 C20.8780488,0.198096502 21.1019064,-0.0257611235 21.3780488,-0.0257611235 C21.4554357,-0.0257611235 21.5317664,-0.00779808728 21.6010316,0.0267138211 Z" id="Rectangle-2" fill="#4A4A4A"></path>
                </g>
            </g>
        </g>
        <g id="Group-6" transform="translate(50.000000, 437.000000)">
            <rect id="Rectangle" stroke="#333333" stroke-width="2" fill="#FFFFFF" x="1" y="1" width="157" height="82" rx="5"></rect>
            <text id="Select-a-Benchmark" font-family="Lato-Bold, Lato" font-size="14" font-weight="bold" fill="#000000">
                <tspan x="18.0715" y="48">Select a Benchmark</tspan>
            </text>
        </g>
    </g>
</svg>