<?xml version="1.0" encoding="UTF-8"?>
<svg width="18px" height="14px" viewBox="0 0 18 14" version="1.1" xmlns="http://www.w3.org/2000/svg" xmlns:xlink="http://www.w3.org/1999/xlink">
    <!-- Generator: Sketch 53.1 (72631) - https://sketchapp.com -->
    <title>Artboard</title>
    <desc>Created with Sketch.</desc>
    <g id="Artboard" stroke="none" stroke-width="1" fill="none" fill-rule="evenodd">
        <rect id="Rectangle" stroke="#333333" fill="#000000" x="0.5" y="6.5" width="17" height="1" rx="0.5"></rect>
        <path d="M10.7049943,9.74149445 C10.4323922,9.74638529 10.2139635,9.96876803 10.2139635,10.241414 L10.2139635,10.2591944 C10.2139641,10.2601274 10.2139641,10.2601274 10.213967,10.2610604 C10.2149976,10.535128 10.4380087,10.7564682 10.7120763,10.7554376 L18.0438048,10.7278681 C18.0766301,10.7277447 18.1092261,10.7223921 18.1403671,10.7120118 C18.3022822,10.6580401 18.3897877,10.4830293 18.335816,10.3211142 L18.2145248,9.95724067 C18.1454222,9.74993298 17.9497003,9.61151508 17.731214,9.61543501 L10.7049943,9.74149445 Z" id="Rectangle" stroke="#333333" fill="#000000" transform="translate(14.282929, 10.185397) scale(1, -1) rotate(45.000000) translate(-14.282929, -10.185397) "></path>
        <path d="M10.7049943,3.74149445 C10.4323922,3.74638529 10.2139635,3.96876803 10.2139635,4.241414 L10.2139635,4.25919436 C10.2139641,4.26012737 10.2139641,4.26012737 10.213967,4.26106038 C10.2149976,4.53512797 10.4380087,4.75646819 10.7120763,4.75543762 L18.0438048,4.7278681 C18.0766301,4.72774467 18.1092261,4.72239215 18.1403671,4.7120118 C18.3022822,4.6580401 18.3897877,4.48302926 18.335816,4.32111416 L18.2145248,3.95724067 C18.1454222,3.74993298 17.9497003,3.61151508 17.731214,3.61543501 L10.7049943,3.74149445 Z" id="Rectangle" stroke="#333333" fill="#000000" transform="translate(14.282929, 4.185397) rotate(45.000000) translate(-14.282929, -4.185397) "></path>
    </g>
</svg>