<?xml version="1.0" encoding="UTF-8"?>
<svg width="18px" height="14px" viewBox="0 0 18 14" version="1.1" xmlns="http://www.w3.org/2000/svg" xmlns:xlink="http://www.w3.org/1999/xlink">
    <!-- Generator: Sketch 53.1 (72631) - https://sketchapp.com -->
    <title>Artboard</title>
    <desc>Created with Sketch.</desc>
    <g id="Artboard" stroke="none" stroke-width="1" fill="none" fill-rule="evenodd">
        <rect id="Rectangle" stroke="#333333" fill="#000000" x="0.5" y="6.5" width="17" height="1" rx="0.5"></rect>
        <path d="M0.409447287,9.74149445 C0.13684519,9.74638529 -0.0815835113,9.96876803 -0.0815835113,10.241414 L-0.0815835113,10.2591944 C-0.0815829266,10.2601274 -0.0815829266,10.2601274 -0.0815800029,10.2610604 C-0.080549426,10.535128 0.142461697,10.7564682 0.416529281,10.7554376 L7.74825773,10.7278681 C7.78108304,10.7277447 7.81367906,10.7223921 7.8448201,10.7120118 C8.0067352,10.6580401 8.09424062,10.4830293 8.04026892,10.3211142 L7.91897775,9.95724067 C7.84987519,9.74993298 7.65415324,9.61151508 7.4356669,9.61543501 L0.409447287,9.74149445 Z" id="Rectangle" stroke="#333333" fill="#000000" transform="translate(3.987382, 10.185397) scale(-1, -1) rotate(45.000000) translate(-3.987382, -10.185397) "></path>
        <path d="M0.409447287,3.74149445 C0.13684519,3.74638529 -0.0815835113,3.96876803 -0.0815835113,4.241414 L-0.0815835113,4.25919436 C-0.0815829266,4.26012737 -0.0815829266,4.26012737 -0.0815800029,4.26106038 C-0.080549426,4.53512797 0.142461697,4.75646819 0.416529281,4.75543762 L7.74825773,4.7278681 C7.78108304,4.72774467 7.81367906,4.72239215 7.8448201,4.7120118 C8.0067352,4.6580401 8.09424062,4.48302926 8.04026892,4.32111416 L7.91897775,3.95724067 C7.84987519,3.74993298 7.65415324,3.61151508 7.4356669,3.61543501 L0.409447287,3.74149445 Z" id="Rectangle" stroke="#333333" fill="#000000" transform="translate(3.987382, 4.185397) scale(-1, 1) rotate(45.000000) translate(-3.987382, -4.185397) "></path>
    </g>
</svg>