<?xml version="1.0" encoding="UTF-8"?>
<svg width="24px" height="24px" viewBox="0 0 24 24" version="1.1" xmlns="http://www.w3.org/2000/svg" xmlns:xlink="http://www.w3.org/1999/xlink">
    <!-- Generator: Sketch 54 (76480) - https://sketchapp.com -->
    <title>dribbble-white</title>
    <desc>Created with Sketch.</desc>
    <g id="dribbble-white" stroke="none" stroke-width="1" fill="none" fill-rule="evenodd">
        <path d="M23.7558652,9.58504321 C23.5992238,8.81321653 23.362145,8.05408901 23.0559182,7.32882592 C22.7567472,6.617673 22.3827836,5.9319184 21.9495502,5.29131636 C21.5205504,4.6563584 21.0280473,4.0580869 20.4861528,3.5162561 C19.9428471,2.97301429 19.3459164,2.48056911 18.7094726,2.05161973 C18.0687952,1.61702628 17.38296,1.24592863 16.6717234,0.943970839 C15.946375,0.639191017 15.1871582,0.400729026 14.416652,0.245517079 C13.6263891,0.0832500441 12.8135474,0 12.0007056,0 C11.1864526,0 10.3736109,0.0832500441 9.58334803,0.245517079 C8.81284177,0.400729026 8.05362498,0.639191017 7.32827659,0.943970839 C6.61704004,1.24592863 5.9312048,1.61702628 5.28911625,2.05161973 C4.65408361,2.48056911 4.05715294,2.97301429 3.51384724,3.5162561 C2.97054154,4.0580869 2.47944964,4.6563584 2.05044981,5.29131636 C1.61580526,5.9319184 1.24325278,6.617673 0.942670665,7.32882592 C0.636443817,8.05408901 0.400776151,8.81321653 0.242723584,9.58504321 C0.0818486506,10.3723911 0,11.1865483 0,11.9992945 C0,12.8134517 0.0818486506,13.6276089 0.242723584,14.4177788 C0.400776151,15.1867835 0.636443817,15.947322 0.942670665,16.6711741 C1.24325278,17.382327 1.61580526,18.0694926 2.05044981,18.7115057 C2.47944964,19.3464636 2.97054154,19.9419131 3.51384724,20.4851549 C4.05715294,21.0283967 4.65408361,21.5194309 5.28911625,21.9483803 C5.9312048,22.3829737 6.61704004,22.7554824 7.32827659,23.0560292 C8.05362498,23.36222 8.81284177,23.5964489 9.58334803,23.7544829 C10.3736109,23.918161 11.1864526,24 12.0007056,24 C12.8135474,24 13.6263891,23.918161 14.416652,23.7544829 C15.1871582,23.5964489 15.946375,23.36222 16.6717234,23.0560292 C17.38296,22.7554824 18.0687952,22.3829737 18.7094726,21.9483803 C19.3459164,21.5194309 19.9428471,21.0283967 20.4861528,20.4851549 C21.0280473,19.9419131 21.5205504,19.3464636 21.9495502,18.7115057 C22.3827836,18.0694926 22.7567472,17.382327 23.0559182,16.6711741 C23.362145,15.947322 23.5992238,15.1867835 23.7558652,14.4177788 C23.9181513,13.6276089 24,12.8134517 24,11.9992945 C24,11.1865483 23.9181513,10.3723911 23.7558652,9.58504321 L23.7558652,9.58504321 Z M22.2458987,11.8977012 C22.0977245,11.8652478 18.6290351,11.1188194 15.1081319,11.561879 C15.0347504,11.3869128 14.9613688,11.2105356 14.8865761,11.0341584 C14.6720762,10.5318361 14.4434645,10.0351579 14.2049744,9.54694573 C18.2522491,7.89464401 19.8948668,5.51849021 19.9146234,5.49026986 C21.3512083,7.23710977 22.2219086,9.46651773 22.2458987,11.8977012 L22.2458987,11.8977012 Z M18.7687423,4.30924805 C18.743341,4.34875654 17.2841771,6.57110941 13.4147116,8.02022459 C11.6634327,4.80169322 9.73857823,2.24492916 9.58475922,2.04174261 C10.359499,1.85407725 11.1681072,1.75248398 12.0007056,1.75248398 C14.5944611,1.75248398 16.9624272,2.72044212 18.7687423,4.30924805 L18.7687423,4.30924805 Z M9.54524608,2.05020871 C9.54524608,2.05161973 9.54383489,2.05161973 9.54383489,2.05161973 C9.54383489,2.05161973 9.53113424,2.05444177 9.51278885,2.05867482 C9.52266714,2.05585278 9.53395661,2.05444177 9.54524608,2.05020871 L9.54524608,2.05020871 Z M7.62744752,2.73173026 C7.76292115,2.91516256 9.65955195,5.48321477 11.4334098,8.63683932 C6.51261245,9.94485273 2.2409596,9.89264507 1.97001235,9.88841202 C2.63609102,6.7136222 4.76838949,4.0820742 7.62744752,2.73173026 L7.62744752,2.73173026 Z M1.75127889,11.9992945 C1.75127889,11.8906461 1.75692362,11.7834088 1.75974599,11.6761714 C1.94037749,11.6804045 7.00511554,11.7946969 12.2815311,10.2157681 C12.5750573,10.7900523 12.8558829,11.3742137 13.1127183,11.956964 C12.9772447,11.9950614 12.8431822,12.035981 12.7091198,12.0797225 C7.17869113,13.8674819 4.37325807,18.8427303 4.37325807,18.8427303 C4.37325807,18.8427303 4.37749162,18.8469634 4.37749162,18.8483744 C2.74475216,17.0323946 1.75127889,14.6322535 1.75127889,11.9992945 L1.75127889,11.9992945 Z M12.0007056,22.247516 C9.51984477,22.247516 7.24501676,21.36563 5.47115893,19.8995826 C5.60663256,20.0082309 5.70118187,20.0787818 5.70118187,20.0787818 C5.70118187,20.0787818 7.66554948,15.7949321 13.7435174,13.6769945 C13.7660963,13.6685284 13.7886753,13.6614733 13.8126654,13.6544182 C15.254895,17.4020813 15.8490034,20.5401846 16.0014112,21.4361808 C14.7722702,21.9582574 13.4189451,22.247516 12.0007056,22.247516 L12.0007056,22.247516 Z M17.7272888,20.4992651 C17.6228612,19.8812393 17.0767331,16.8729496 15.7318751,13.1803163 C19.0411007,12.6511847 21.9072147,13.558469 22.1188922,13.6276089 C21.6630799,16.4820977 20.0275181,18.9457346 17.7272888,20.4992651 L17.7272888,20.4992651 Z" id="Shape" fill="#FFFFFF"></path>
    </g>
</svg>