<?xml version="1.0" encoding="UTF-8"?>
<svg width="62px" height="43px" viewBox="0 0 62 43" version="1.1" xmlns="http://www.w3.org/2000/svg" xmlns:xlink="http://www.w3.org/1999/xlink">
    <!-- Generator: Sketch 59.1 (86144) - https://sketch.com -->
    <title>logo</title>
    <desc>Created with Sketch.</desc>
    <g id="2020-Logo" stroke="none" stroke-width="1" fill="none" fill-rule="evenodd">
        <g id="2020" transform="translate(-298.000000, -230.000000)">
            <g id="logo" transform="translate(298.000000, 230.000000)">
                <path d="M5,-1.0658141e-14 L12.8571429,-1.0658141e-14 L12.8571429,-1.0658141e-14 L12.8571429,37.8571429 C12.8571429,40.6185666 10.6185666,42.8571429 7.85714286,42.8571429 L5,42.8571429 C2.23857625,42.8571429 2.00043439e-14,40.6185666 1.59872116e-14,37.8571429 L1.59872116e-14,5 C1.56490347e-14,2.23857625 2.23857625,-1.01508757e-14 5,-1.0658141e-14 Z" id="Rectangle-Copy" fill-opacity="0.6" fill="#1E7CFF"></path>
                <path d="M-2.48689958e-14,25.7142857 L-2.48689958e-14,5 C-2.52071726e-14,2.23857625 2.23857625,5.83633583e-15 5,5.32907052e-15 L12.8571429,5.32907052e-15 C19.9579468,5.32907052e-15 25.7142857,5.75633893 25.7142857,12.8571429 C25.7142857,19.9579468 19.9579468,25.7142857 12.8571429,25.7142857 L12.8571429,25.7142857 L-2.48689958e-14,25.7142857 Z" id="Combined-Shape" fill-opacity="0.7" fill="#FA3D3D"></path>
                <g id="Group-2-Copy" transform="translate(27.428571, 0.000000)">
                    <g id="Group">
                        <path d="M15.0658832,0 L16.2843552,0 C19.1564719,-5.27599284e-16 21.5502404,2.19926211 21.7930627,5.06109577 L24.5398901,37.4344194 C24.7733539,40.1859563 22.7320522,42.6057775 19.9805152,42.8392413 C19.8399231,42.8511703 19.698889,42.8571429 19.5577917,42.8571429 L6.47532647,42.8571429 C3.71390272,42.8571429 1.47532647,40.6185666 1.47532647,37.8571429 C1.47532647,37.4303489 1.52997148,37.0053113 1.63792866,36.5923968 L10.2284854,3.73525399 C10.8037729,1.53489554 12.7915628,1.30596429e-15 15.0658832,0 Z" id="Rectangle" fill="#78B0FF" transform="translate(12.500000, 21.428571) scale(-1, 1) translate(-12.500000, -21.428571) "></path>
                        <path d="M12.5172532,0 L12.8752643,0 C14.4194131,-2.83655529e-16 15.7063854,1.18239899 15.836935,2.72101923 L18.7823144,37.4344194 C19.0157781,40.1859563 16.9744764,42.6057775 14.2229394,42.8392413 C14.0823473,42.8511703 13.9413132,42.8571429 13.8002159,42.8571429 L6.32168461,42.8571429 C3.56026086,42.8571429 1.32168461,40.6185666 1.32168461,37.8571429 C1.32168461,37.4693289 1.36680398,37.0828318 1.45613279,36.7054461 L9.5979221,2.30898192 C9.91824516,0.95571909 11.1265961,2.55459564e-16 12.5172532,0 Z" id="Rectangle" fill="#4491FF" transform="translate(9.621212, 21.428571) scale(-1, 1) translate(-9.621212, -21.428571) "></path>
                    </g>
                    <g id="Group" transform="translate(21.818182, 21.500000) scale(-1, 1) translate(-21.818182, -21.500000) translate(9.090909, 0.000000)">
                        <path d="M15.0658832,0 L16.7699129,0 C19.3674675,-1.36534145e-15 21.5324019,1.98902199 21.7520113,4.5772765 L24.5398901,37.4344194 C24.7733539,40.1859563 22.7320522,42.6057775 19.9805152,42.8392413 C19.8399231,42.8511703 19.698889,42.8571429 19.5577917,42.8571429 L6.47532647,42.8571429 C3.71390272,42.8571429 1.47532647,40.6185666 1.47532647,37.8571429 C1.47532647,37.4303489 1.52997148,37.0053113 1.63792866,36.5923968 L10.2284854,3.73525399 C10.8037729,1.53489554 12.7915628,1.30596429e-15 15.0658832,0 Z" id="Rectangle" fill-opacity="0.5" fill="#FA3D3D" transform="translate(12.500000, 21.428571) scale(-1, 1) translate(-12.500000, -21.428571) "></path>
                        <path d="M12.5172532,0 L12.8752643,0 C14.4194131,1.08782409e-15 15.7063854,1.18239899 15.836935,2.72101923 L18.7823144,37.4344194 C19.0157781,40.1859563 16.9744764,42.6057775 14.2229394,42.8392413 C14.0823473,42.8511703 13.9413132,42.8571429 13.8002159,42.8571429 L6.32168461,42.8571429 C3.56026086,42.8571429 1.32168461,40.6185666 1.32168461,37.8571429 C1.32168461,37.4693289 1.36680398,37.0828318 1.45613279,36.7054461 L9.5979221,2.30898192 C9.91824516,0.95571909 11.1265961,6.99548773e-16 12.5172532,0 Z" id="Rectangle" fill-opacity="0.8" fill="#FB7777" transform="translate(9.621212, 21.428571) scale(-1, 1) translate(-9.621212, -21.428571) "></path>
                    </g>
                </g>
            </g>
        </g>
    </g>
</svg>