<?xml version="1.0" encoding="UTF-8"?>
<svg width="47px" height="33px" viewBox="0 0 47 33" version="1.1" xmlns="http://www.w3.org/2000/svg" xmlns:xlink="http://www.w3.org/1999/xlink">
    <!-- Generator: Sketch 59.1 (86144) - https://sketch.com -->
    <title>logo-sm</title>
    <desc>Created with Sketch.</desc>
    <g id="2020-Logo" stroke="none" stroke-width="1" fill="none" fill-rule="evenodd">
        <g id="2020" transform="translate(-310.000000, -90.000000)">
            <g id="logo-sm" transform="translate(310.000000, 90.000000)">
                <path d="M5,-1.0658141e-14 L9.79591837,-1.0658141e-14 L9.79591837,-1.0658141e-14 L9.79591837,27.755102 C9.79591837,30.4601702 7.60302735,32.6530612 4.89795918,32.6530612 L4,32.6530612 C1.790861,32.6530612 1.82198626e-14,30.8622002 1.59872116e-14,28.6530612 L1.59872116e-14,5 C1.56490347e-14,2.23857625 2.23857625,-1.01508757e-14 5,-1.0658141e-14 Z" id="Rectangle-Copy" fill-opacity="0.6" fill="#1E7CFF"></path>
                <path d="M-2.48689958e-14,19.5918367 L-2.48689958e-14,5 C-2.6095351e-14,2.23857625 2.23857625,7.61269267e-15 5,5.32907052e-15 L9.79591837,5.32907052e-15 C15.2060547,5.32907052e-15 19.5918367,4.38578204 19.5918367,9.79591837 C19.5918367,15.2060547 15.2060547,19.5918367 9.79591837,19.5918367 L9.79591837,19.5918367 L-2.48689958e-14,19.5918367 Z" id="Combined-Shape" fill-opacity="0.7" fill="#FA3D3D"></path>
                <g id="Group-2-Copy" transform="translate(20.897959, 0.000000)">
                    <g id="Group">
                        <path d="M10.0815229,0 L13.5208222,0 C15.0793549,-7.30387029e-16 16.3783156,1.19341319 16.5100813,2.7463659 L18.7715531,29.3994271 C18.9116314,31.0503493 17.6868504,32.502242 16.0359282,32.6423203 C15.9515729,32.6494777 15.8669524,32.6530612 15.7822941,32.6530612 L1.29506529,32.6530612 C0.742780543,32.6530612 0.295065293,32.205346 0.295065293,31.6530612 C0.295065293,31.5677024 0.305994295,31.4826949 0.327585732,31.400112 L8.14656379,1.4941016 C8.3766788,0.613958214 9.17179477,-4.99019466e-16 10.0815229,0 Z" id="Rectangle" fill="#78B0FF" transform="translate(9.523810, 16.326531) scale(-1, 1) translate(-9.523810, -16.326531) "></path>
                        <path d="M9.31097526,0 L9.80972516,0 C10.9862195,-2.16118498e-16 11.9667698,0.900875418 12.0662362,2.07315751 L14.3848287,29.3994271 C14.524907,31.0503493 13.300126,32.502242 11.6492038,32.6423203 C11.5648485,32.6494777 11.4802281,32.6530612 11.3955697,32.6530612 L1.26433692,32.6530612 C0.712052171,32.6530612 0.264336921,32.205346 0.264336921,31.6530612 C0.264336921,31.5754984 0.273360796,31.498199 0.291226558,31.4227219 L7.36475454,1.53932128 C7.57830325,0.63714606 8.38387053,1.50257401e-15 9.31097526,0 Z" id="Rectangle" fill="#4491FF" transform="translate(7.330447, 16.326531) scale(-1, 1) translate(-7.330447, -16.326531) "></path>
                    </g>
                    <g id="Group" transform="translate(16.570346, 16.500000) scale(-1, 1) translate(-16.570346, -16.500000) translate(6.820346, 0.000000)">
                        <path d="M10.0815229,0 L13.5208222,0 C15.0793549,-7.30387029e-16 16.3783156,1.19341319 16.5100813,2.7463659 L18.7715531,29.3994271 C18.9116314,31.0503493 17.6868504,32.502242 16.0359282,32.6423203 C15.9515729,32.6494777 15.8669524,32.6530612 15.7822941,32.6530612 L1.29506529,32.6530612 C0.742780543,32.6530612 0.295065293,32.205346 0.295065293,31.6530612 C0.295065293,31.5677024 0.305994295,31.4826949 0.327585732,31.400112 L8.14656379,1.4941016 C8.3766788,0.613958214 9.17179477,1.86329367e-15 10.0815229,0 Z" id="Rectangle" fill-opacity="0.5" fill="#FA3D3D" transform="translate(9.523810, 16.326531) scale(-1, 1) translate(-9.523810, -16.326531) "></path>
                        <path d="M9.31097526,0 L9.80972516,0 C10.9862195,8.28818358e-16 11.9667698,0.900875418 12.0662362,2.07315751 L14.3848287,29.3994271 C14.524907,31.0503493 13.300126,32.502242 11.6492038,32.6423203 C11.5648485,32.6494777 11.4802281,32.6530612 11.3955697,32.6530612 L1.26433692,32.6530612 C0.712052171,32.6530612 0.264336921,32.205346 0.264336921,31.6530612 C0.264336921,31.5754984 0.273360796,31.498199 0.291226558,31.4227219 L7.36475454,1.53932128 C7.57830325,0.63714606 8.38387053,2.39075242e-15 9.31097526,0 Z" id="Rectangle" fill-opacity="0.8" fill="#FB7777" transform="translate(7.330447, 16.326531) scale(-1, 1) translate(-7.330447, -16.326531) "></path>
                    </g>
                </g>
            </g>
        </g>
    </g>
</svg>