<?xml version="1.0" encoding="UTF-8"?>
<svg width="28px" height="28px" viewBox="0 0 28 28" version="1.1" xmlns="http://www.w3.org/2000/svg" xmlns:xlink="http://www.w3.org/1999/xlink">
    <!-- Generator: Sketch 53.1 (72631) - https://sketchapp.com -->
    <title>Artboard</title>
    <desc>Created with Sketch.</desc>
    <g id="Artboard" stroke="none" stroke-width="1" fill="none" fill-rule="evenodd">
        <g id="mail">
            <rect id="Rectangle" x="0" y="0" width="28" height="28"></rect>
            <circle id="Oval" stroke="#000000" stroke-width="1.5" cx="14" cy="14" r="13.25"></circle>
            <path d="M8.34371233,12.047584 C8.02084932,11.8451263 7.71610959,11.5666916 7.42968493,11.2123685 C7.14326027,10.8580454 7,10.5289297 7,10.2251988 C7,9.84921869 7.10806849,9.53581318 7.32420548,9.28507101 C7.54034247,9.03441761 7.84891781,8.90909091 8.24993151,8.90909091 L19.7499726,8.90909091 C20.0883699,8.90909091 20.381411,9.02234648 20.6288082,9.24894639 C20.8762055,9.4755463 21,9.74794548 21,10.0661439 C21,10.4470058 20.8724658,10.8110035 20.6171096,11.1579596 C20.3618493,11.5050933 20.0442603,11.8016347 19.6640548,12.0474064 C17.7057808,13.3057327 16.4869178,14.0891133 16.0078493,14.3976371 C15.9557808,14.431454 15.8450274,14.5048571 15.6757808,14.6182015 C15.5065342,14.7315458 15.3659589,14.8232331 15.2539589,14.8930859 C15.1419589,14.9629387 15.0065616,15.0412235 14.8477671,15.1280291 C14.6889726,15.2146572 14.5390959,15.2798945 14.3985205,15.3231198 C14.2578493,15.3666114 14.1276301,15.3881796 14.007863,15.3881796 L14,15.3881796 L13.992137,15.3881796 C13.8723699,15.3881796 13.7421507,15.3666114 13.6014795,15.3231198 C13.4609041,15.2798945 13.3111233,15.2147459 13.1522329,15.1280291 C12.9933425,15.0413122 12.8579452,14.9629387 12.7459452,14.8930859 C12.6340411,14.8232331 12.4933699,14.7315458 12.3241233,14.6182015 C12.1548767,14.5049459 12.0442192,14.431454 11.9921507,14.3976371 C11.5181644,14.0892021 10.8359041,13.649316 9.94527397,13.0780677 C9.05464384,12.5068193 8.52082192,12.163236 8.34371233,12.047584 Z M20.2186849,12.8212899 C20.5156575,12.6332999 20.776,12.4234753 21,12.1921712 L21,17.9337673 C21,18.2520545 20.8777397,18.5242762 20.6328356,18.7509649 C20.3880274,18.9776535 20.0937397,19.0909091 19.7500685,19.0909091 L8.2500274,19.0909091 C7.90626027,19.0909091 7.6119726,18.9776535 7.36716438,18.7509649 C7.12235616,18.5243649 7,18.2520545 7,17.9337673 L7,12.1921712 C7.22917808,12.428357 7.49220548,12.6381816 7.78908219,12.8212899 C9.67447945,14.0071894 10.9687123,14.8388546 11.6718767,15.3161079 C11.9687534,15.5185655 12.2096301,15.6765553 12.3945068,15.7897221 C12.5793836,15.9030664 12.8255342,16.0187185 13.1327671,16.1368558 C13.44,16.254993 13.7265205,16.3140173 13.992137,16.3140173 L14,16.3140173 L14.0079589,16.3140173 C14.2735753,16.3140173 14.56,16.254993 14.8672329,16.1368558 C15.1745616,16.0187185 15.4206164,15.9030664 15.6054932,15.7897221 C15.7904658,15.6765553 16.0313425,15.5185655 16.3282192,15.3161079 C17.2134795,14.7231138 18.5104932,13.8914486 20.2186849,12.8212899 Z" id="Shape" fill="#000000"></path>
        </g>
    </g>
</svg>