<?xml version="1.0" encoding="UTF-8"?>
<svg width="1060px" height="520px" viewBox="0 0 1060 520" version="1.1" xmlns="http://www.w3.org/2000/svg" xmlns:xlink="http://www.w3.org/1999/xlink">
    <!-- Generator: Sketch 55.1 (78136) - https://sketchapp.com -->
    <title>New User Workflow</title>
    <desc>Created with Sketch.</desc>
    <g id="New-User-Workflow" stroke="none" stroke-width="1" fill="none" fill-rule="evenodd">
        <g id="Dashboard" transform="translate(60.000000, 30.000000)">
            <rect id="Rectangle" fill="#000000" x="0" y="0" width="200" height="100" rx="5"></rect>
            <text font-family="Lato-Bold, Lato" font-size="20" font-weight="bold" fill="#FFFFFF">
                <tspan x="51.33" y="58">Dashboard</tspan>
            </text>
        </g>
        <g id="Quick-Search" transform="translate(420.000000, 30.000000)">
            <rect id="Rectangle" fill="#000000" x="0" y="0" width="200" height="100" rx="5"></rect>
            <text id="Advanced-Search" font-family="Lato-Bold, Lato" font-size="20" font-weight="bold" fill="#FFFFFF">
                <tspan x="23.215" y="58">Advanced Search</tspan>
            </text>
        </g>
        <g id="Profile" transform="translate(800.000000, 30.000000)">
            <rect id="Rectangle" fill="#000000" x="0" y="0" width="200" height="100" rx="5"></rect>
            <text font-family="Lato-Bold, Lato" font-size="20" font-weight="bold" fill="#FFFFFF">
                <tspan x="70.415" y="58">Profile</tspan>
            </text>
        </g>
        <g id="Profile" transform="translate(800.000000, 270.000000)">
            <rect id="Rectangle" fill="#000000" x="0" y="0" width="200" height="100" rx="5"></rect>
            <text id="Benchmark" font-family="Lato-Bold, Lato" font-size="20" font-weight="bold" fill="#FFFFFF">
                <tspan x="49.245" y="58">Benchmark</tspan>
            </text>
        </g>
        <g id="Profile" transform="translate(800.000000, 150.000000)">
            <rect id="Rectangle" fill="#000000" x="0" y="0" width="200" height="100" rx="5"></rect>
            <text id="Target-List" font-family="Lato-Bold, Lato" font-size="20" font-weight="bold" fill="#FFFFFF">
                <tspan x="52.79" y="58">Target List</tspan>
            </text>
        </g>
        <g id="arrow" transform="translate(280.000000, 84.000000)">
            <path d="M0,4 L110.857143,4" id="Path-4" stroke="#F44336" stroke-width="2" stroke-linecap="round" stroke-linejoin="round"></path>
            <path d="M112.722983,0.0267138211 L119.774597,3.54023466 C120.021758,3.66338465 120.122289,3.96358124 119.999139,4.2107425 C119.950892,4.30757387 119.87254,4.38614465 119.775844,4.43466139 L112.72423,7.97275577 C112.477413,8.09659433 112.176937,7.99690063 112.053098,7.75008365 C112.018182,7.68049402 112,7.60371196 112,7.52585409 L112,0.474238877 C112,0.198096502 112.223858,-0.0257611235 112.5,-0.0257611235 C112.577387,-0.0257611235 112.653718,-0.00779808728 112.722983,0.0267138211 Z" id="Rectangle-2" fill="#4A4A4A"></path>
        </g>
        <g id="arrow" transform="translate(640.000000, 84.000000)">
            <path d="M0,4 L138.838095,4" id="Path-4" stroke="#F44336" stroke-width="2" stroke-linecap="round" stroke-linejoin="round"></path>
            <path d="M140.722983,0.0267138211 L147.774597,3.54023466 C148.021758,3.66338465 148.122289,3.96358124 147.999139,4.2107425 C147.950892,4.30757387 147.87254,4.38614465 147.775844,4.43466139 L140.72423,7.97275577 C140.477413,8.09659433 140.176937,7.99690063 140.053098,7.75008365 C140.018182,7.68049402 140,7.60371196 140,7.52585409 L140,0.474238877 C140,0.198096502 140.223858,-0.0257611235 140.5,-0.0257611235 C140.577387,-0.0257611235 140.653718,-0.00779808728 140.722983,0.0267138211 Z" id="Rectangle-2" fill="#4A4A4A"></path>
        </g>
        <text id="Interactions:-1.-App" font-family="Lato-Bold, Lato" font-size="16" font-weight="bold" line-spacing="28" fill="#000000">
            <tspan x="420" y="162">Interactions:</tspan>
            <tspan x="420" y="190" font-family="Lato-Regular, Lato" font-weight="normal">1. Apply filters to major categories</tspan>
            <tspan x="420" y="218" font-family="Lato-Regular, Lato" font-weight="normal"></tspan>
            <tspan x="420" y="246" font-family="Lato-Regular, Lato" font-weight="normal"></tspan>
            <tspan x="420" y="274" font-family="Lato-Regular, Lato" font-weight="normal">2. Load or Save an Advanced Search</tspan>
            <tspan x="420" y="302" font-family="Lato-Regular, Lato" font-weight="normal">3. Ability to add profiles to a list or benchmark</tspan>
            <tspan x="420" y="330" font-family="Lato-Regular, Lato" font-weight="normal">4. Ability to view profiles</tspan>
            <tspan x="420" y="358" font-family="Lato-Regular, Lato" font-weight="normal">5. Ability to toggle between list and map view </tspan>
            <tspan x="420" y="386" font-family="Lato-Regular, Lato" font-weight="normal">6. Ability to export results to Excel</tspan>
        </text>
        <text id="(ie.-Investors,-Fund" font-family="Lato-Regular, Lato" font-size="12" font-weight="normal" line-spacing="19" fill="#000000">
            <tspan x="434" y="213">(ie. Investors, Fund Managers,</tspan>
            <tspan x="434" y="232">Funds, Investment Consultants, Deals, Secondary </tspan>
            <tspan x="434" y="251">Market Transactions, Service Providers)</tspan>
        </text>
        <g id="Profile" transform="translate(800.000000, 390.000000)">
            <rect id="Rectangle" fill="#000000" x="0" y="0" width="200" height="100" rx="5"></rect>
            <text id="Saved-Search" font-family="Lato-Bold, Lato" font-size="20" font-weight="bold" fill="#FFFFFF">
                <tspan x="41.105" y="58">Saved Search</tspan>
            </text>
        </g>
        <g id="2-s" transform="translate(774.000000, 146.500000) scale(1, -1) translate(-774.000000, -146.500000) translate(760.000000, 89.000000)">
            <g id="arrow" transform="translate(2.731707, 0.000000)">
                <polyline id="Path-2" stroke="#F44336" stroke-width="2" stroke-linecap="round" stroke-linejoin="round" points="0.034940968 114.009594 0.034940968 3.99986409 24.3095347 3.99986409"></polyline>
                <path d="M17.9912755,0.0267138211 L25.0428897,3.54023466 C25.2900509,3.66338465 25.3905819,3.96358124 25.2674319,4.2107425 C25.2191849,4.30757387 25.1408329,4.38614465 25.0441364,4.43466139 L17.9925222,7.97275577 C17.7457053,8.09659433 17.4452296,7.99690063 17.321391,7.75008365 C17.2864749,7.68049402 17.2682927,7.60371196 17.2682927,7.52585409 L17.2682927,0.474238877 C17.2682927,0.198096502 17.4921503,-0.0257611235 17.7682927,-0.0257611235 C17.8456796,-0.0257611235 17.9220103,-0.00779808728 17.9912755,0.0267138211 Z" id="Rectangle-2" fill="#4A4A4A"></path>
            </g>
        </g>
        <g id="2-s" transform="translate(774.000000, 261.500000) scale(1, -1) translate(-774.000000, -261.500000) translate(760.000000, 199.000000)">
            <g id="arrow" transform="translate(2.731707, 0.000000)">
                <polyline id="Path-2" stroke="#F44336" stroke-width="2" stroke-linecap="round" stroke-linejoin="round" points="0.034940968 124.009594 0.034940968 3.99986409 24.3095347 3.99986409"></polyline>
                <path d="M17.9912755,0.0267138211 L25.0428897,3.54023466 C25.2900509,3.66338465 25.3905819,3.96358124 25.2674319,4.2107425 C25.2191849,4.30757387 25.1408329,4.38614465 25.0441364,4.43466139 L17.9925222,7.97275577 C17.7457053,8.09659433 17.4452296,7.99690063 17.321391,7.75008365 C17.2864749,7.68049402 17.2682927,7.60371196 17.2682927,7.52585409 L17.2682927,0.474238877 C17.2682927,0.198096502 17.4921503,-0.0257611235 17.7682927,-0.0257611235 C17.8456796,-0.0257611235 17.9220103,-0.00779808728 17.9912755,0.0267138211 Z" id="Rectangle-2" fill="#4A4A4A"></path>
            </g>
        </g>
        <g id="2-s" transform="translate(774.000000, 382.500000) scale(1, -1) translate(-774.000000, -382.500000) translate(760.000000, 320.000000)">
            <g id="arrow" transform="translate(2.731707, 0.000000)">
                <polyline id="Path-2" stroke="#F44336" stroke-width="2" stroke-linecap="round" stroke-linejoin="round" points="0.034940968 124.009594 0.034940968 3.99986409 24.3095347 3.99986409"></polyline>
                <path d="M17.9912755,0.0267138211 L25.0428897,3.54023466 C25.2900509,3.66338465 25.3905819,3.96358124 25.2674319,4.2107425 C25.2191849,4.30757387 25.1408329,4.38614465 25.0441364,4.43466139 L17.9925222,7.97275577 C17.7457053,8.09659433 17.4452296,7.99690063 17.321391,7.75008365 C17.2864749,7.68049402 17.2682927,7.60371196 17.2682927,7.52585409 L17.2682927,0.474238877 C17.2682927,0.198096502 17.4921503,-0.0257611235 17.7682927,-0.0257611235 C17.8456796,-0.0257611235 17.9220103,-0.00779808728 17.9912755,0.0267138211 Z" id="Rectangle-2" fill="#4A4A4A"></path>
            </g>
        </g>
    </g>
</svg>