<?xml version="1.0" encoding="UTF-8"?>
<svg width="1232px" height="446px" viewBox="0 0 1232 446" version="1.1" xmlns="http://www.w3.org/2000/svg" xmlns:xlink="http://www.w3.org/1999/xlink">
    <!-- Generator: Sketch 54 (76480) - https://sketchapp.com -->
    <title>New User Workflow</title>
    <desc>Created with Sketch.</desc>
    <g id="New-User-Workflow" stroke="none" stroke-width="1" fill="none" fill-rule="evenodd">
        <g id="Group" transform="translate(60.000000, 30.000000)">
            <g id="Dashboard">
                <rect id="Rectangle" fill="#000000" x="0" y="0" width="200" height="100" rx="5"></rect>
                <text font-family="Lato-Bold, Lato" font-size="20" font-weight="bold" fill="#FFFFFF">
                    <tspan x="51.33" y="58">Dashboard</tspan>
                </text>
            </g>
            <g id="Quick-Search" transform="translate(360.000000, 0.000000)">
                <rect id="Rectangle" fill="#000000" x="0" y="0" width="200" height="100" rx="5"></rect>
                <text font-family="Lato-Bold, Lato" font-size="20" font-weight="bold" fill="#FFFFFF">
                    <tspan x="41.41" y="58">Quick Search</tspan>
                </text>
            </g>
            <g id="Profile" transform="translate(720.000000, 0.000000)">
                <rect id="Rectangle" fill="#000000" x="0" y="0" width="200" height="100" rx="5"></rect>
                <text font-family="Lato-Bold, Lato" font-size="20" font-weight="bold" fill="#FFFFFF">
                    <tspan x="70.415" y="58">Profile</tspan>
                </text>
            </g>
            <g id="arrow" transform="translate(220.000000, 54.000000)">
                <path d="M0,4 L110.857143,4" id="Path-4" stroke="#F44336" stroke-width="2" stroke-linecap="round" stroke-linejoin="round"></path>
                <path d="M112.722983,0.0267138211 L119.774597,3.54023466 C120.021758,3.66338465 120.122289,3.96358124 119.999139,4.2107425 C119.950892,4.30757387 119.87254,4.38614465 119.775844,4.43466139 L112.72423,7.97275577 C112.477413,8.09659433 112.176937,7.99690063 112.053098,7.75008365 C112.018182,7.68049402 112,7.60371196 112,7.52585409 L112,0.474238877 C112,0.198096502 112.223858,-0.0257611235 112.5,-0.0257611235 C112.577387,-0.0257611235 112.653718,-0.00779808728 112.722983,0.0267138211 Z" id="Rectangle-2" fill="#4A4A4A"></path>
            </g>
            <g id="arrow" transform="translate(580.000000, 54.000000)">
                <path d="M0,4 L110.857143,4" id="Path-4" stroke="#F44336" stroke-width="2" stroke-linecap="round" stroke-linejoin="round"></path>
                <path d="M112.722983,0.0267138211 L119.774597,3.54023466 C120.021758,3.66338465 120.122289,3.96358124 119.999139,4.2107425 C119.950892,4.30757387 119.87254,4.38614465 119.775844,4.43466139 L112.72423,7.97275577 C112.477413,8.09659433 112.176937,7.99690063 112.053098,7.75008365 C112.018182,7.68049402 112,7.60371196 112,7.52585409 L112,0.474238877 C112,0.198096502 112.223858,-0.0257611235 112.5,-0.0257611235 C112.577387,-0.0257611235 112.653718,-0.00779808728 112.722983,0.0267138211 Z" id="Rectangle-2" fill="#4A4A4A"></path>
            </g>
            <text id="Interactions:-1.-Sea" font-family="Lato-Bold, Lato" font-size="16" font-weight="bold" fill="#000000">
                <tspan x="360" y="136">Interactions:</tspan>
                <tspan x="360" y="155" font-family="Lato-Regular, Lato" font-weight="normal">1. Search for a Profile in input field</tspan>
                <tspan x="597.872" y="155"></tspan>
                <tspan x="360" y="174" font-family="Lato-Regular, Lato" font-weight="normal">2. Clear text from input field</tspan>
                <tspan x="360" y="193" font-family="Lato-Regular, Lato" font-weight="normal">3. Ability to filter results by cateogry:</tspan>
                <tspan x="616.848" y="193"></tspan>
                <tspan x="360" y="212"></tspan>
                <tspan x="360" y="231"></tspan>
                <tspan x="360" y="250"></tspan>
                <tspan x="360" y="269"></tspan>
                <tspan x="360" y="288"></tspan>
                <tspan x="360" y="307"></tspan>
                <tspan x="360" y="326"></tspan>
                <tspan x="360" y="345">	</tspan>
                <tspan x="388" y="345" font-family="Lato-Regular, Lato" font-weight="normal"></tspan>
                <tspan x="360" y="364" font-family="Lato-Regular, Lato" font-weight="normal"></tspan>
                <tspan x="360" y="383" font-family="Lato-Regular, Lato" font-weight="normal">4. Close (return to Dashboard)</tspan>
            </text>
            <text id="Interactions:-1.-Exp" font-family="Lato-Bold, Lato" font-size="16" font-weight="bold" fill="#000000">
                <tspan x="720" y="136">Interactions:</tspan>
                <tspan x="720" y="155" font-family="Lato-Regular, Lato" font-weight="normal">1. Export Profile via Word / PDF (all Asset Classes)</tspan>
                <tspan x="720" y="174" font-family="Lato-Regular, Lato" font-weight="normal">2. Add Profile to target list</tspan>
                <tspan x="720" y="193" font-family="Lato-Regular, Lato" font-weight="normal">3. Submit profile feedback</tspan>
                <tspan x="720" y="212" font-family="Lato-Regular, Lato" font-weight="normal">4. Ability to view asset class specific datasets in one page</tspan>
                <tspan x="720" y="231" font-family="Lato-Regular, Lato" font-weight="normal">5. Access asset class specific datasets via tab navigation </tspan>
            </text>
            <g id="2-d" transform="translate(216.500000, 249.000000) scale(-1, 1) rotate(180.000000) translate(-216.500000, -249.000000) translate(93.000000, 120.000000)">
                <g id="arrow" transform="translate(0.000000, -0.000000)">
                    <polyline id="Path-2" stroke="#F44336" stroke-width="2" stroke-linecap="round" stroke-linejoin="round" points="5.03494097 255.009594 5.03494097 -0.000135908884 246.041242 -0.000135908884"></polyline>
                    <path d="M1.69701968,249.052475 L8.748635,252.565996 C8.99579627,252.689146 9.09632728,252.989342 8.9731773,253.236504 C8.92493033,253.333335 8.84657827,253.411906 8.74988176,253.460423 L1.69826644,256.998517 C1.45144946,257.122356 1.15097378,257.022662 1.02713523,256.775845 C0.992219163,256.706255 0.974036915,256.629473 0.974036915,256.551615 L0.974036915,249.5 C0.974036915,249.223858 1.19789454,249 1.47403692,249 C1.55142384,249 1.6277545,249.017963 1.69701968,249.052475 Z" id="Rectangle-2-Copy" fill="#4A4A4A" transform="translate(4.999900, 253.025862) rotate(90.000000) translate(-4.999900, -253.025862) "></path>
                </g>
            </g>
        </g>
        <text id="--Investors---Consul" font-family="Lato-Regular, Lato" font-size="16" font-weight="normal" fill="#000000">
            <tspan x="448" y="243">- Investors</tspan>
            <tspan x="448" y="262">- Consultants</tspan>
            <tspan x="448" y="281">- Fund Managers</tspan>
            <tspan x="448" y="300">- Funds</tspan>
            <tspan x="448" y="319">- Service Providers</tspan>
            <tspan x="448" y="338">- Asset</tspan>
            <tspan x="448" y="357">- Contacts</tspan>
        </text>
    </g>
</svg>